<svg xmlns="http://www.w3.org/2000/svg" viewBox="0 0 592.9 147.7"><defs><style>.a{fill:#a66cca;}.b{fill:#5c276a;}.c{fill:#7a2c8f;}.d{fill:#45204f;}.e{fill:#bb8cc8;}.f{fill:#fff;opacity:0.5;}</style></defs><title>bg-6</title><path class="a" d="M296.4,95.9c-26.2,0-50.9-.6-69.4-1.8-29.1-1.8-29.1-4-29.1-4.7s0-2.8,29.1-4.7c18.5-1.2,43.2-1.8,69.4-1.8s50.9,0.6,69.4,1.8c29,1.8,29,4,29,4.7s0,2.8-29,4.7C347.3,95.2,322.7,95.9,296.4,95.9Zm0-12.3c-26.2,0-50.9.6-69.4,1.8-27.7,1.7-28.5,3.8-28.5,4s0.8,2.3,28.5,4c18.5,1.2,43.2,1.8,69.4,1.8s50.9-.6,69.4-1.8c27.7-1.7,28.5-3.8,28.5-4s-0.8-2.3-28.5-4C347.3,84.2,322.7,83.6,296.4,83.6Z"/><path class="a" d="M296.4,97c-51.2,0-105.6-2.7-105.6-7.6s54.4-7.6,105.6-7.6S402,84.5,402,89.4,347.6,97,296.4,97Zm0-14.6c-28.1,0-54.5.8-74.4,2.1-29.1,2-30.5,4.4-30.5,4.9s1.5,2.8,30.5,4.9c19.9,1.4,46.3,2.1,74.4,2.1s54.5-.8,74.4-2.1c29.1-2,30.5-4.4,30.5-4.9s-1.5-2.8-30.5-4.9C351,83.2,324.5,82.4,296.4,82.4Z"/><path class="a" d="M296.4,98.7c-31.3,0-60.8-.9-82.9-2.6s-34.6-4-34.6-6.7,11.7-4.9,34.6-6.7,51.6-2.6,82.9-2.6,60.8,0.9,82.9,2.6,34.6,4,34.6,6.7-11.7,4.9-34.6,6.7S327.8,98.7,296.4,98.7Zm0-18c-69.9,0-116.9,4.5-116.9,8.7s47,8.7,116.9,8.7,116.9-4.5,116.9-8.7S366.4,80.7,296.4,80.7Z"/><path class="a" d="M296.4,100.6c-62.7,0-127.6-4.2-127.6-11.2s64.9-11.2,127.6-11.2,127.6,4.2,127.6,11.2S359.2,100.6,296.4,100.6Zm0-21.8c-76,0-127,5.5-127,10.6s51,10.6,127,10.6,127-5.5,127-10.6S372.4,78.8,296.4,78.8Z"/><path class="a" d="M296.4,98.2c-29.6,0-57.5-.9-78.4-2.5s-32.8-3.8-32.8-6.3,11-4.6,32.8-6.3,48.8-2.5,78.4-2.5,57.5,0.9,78.4,2.5,32.8,3.8,32.8,6.3-11,4.6-32.8,6.3S326,98.2,296.4,98.2Zm0-16.9c-29.6,0-57.4.9-78.4,2.5-23.7,1.8-32.2,4.1-32.2,5.7s8.5,3.9,32.2,5.7c20.9,1.6,48.8,2.5,78.4,2.5s57.4-.9,78.4-2.5C398.5,93.3,407,91,407,89.4s-8.5-3.9-32.2-5.7C353.9,82.1,326,81.2,296.4,81.2Z"/><path class="a" d="M296.4,100.2c-60.6,0-123.3-4-123.3-10.8s62.7-10.8,123.3-10.8,123.3,4,123.3,10.8S357,100.2,296.4,100.2Zm0-20.9c-73.3,0-122.6,5.2-122.6,10.1s49.3,10.1,122.6,10.1,122.6-5.2,122.6-10.1S369.8,79.3,296.4,79.3Z"/><path class="a" d="M296.4,102.1c-65.2,0-132.7-4.8-132.7-12.7s67.5-12.7,132.7-12.7,132.7,4.8,132.7,12.7S361.7,102.1,296.4,102.1Zm0-24.8c-79,0-132.1,6.2-132.1,12.1s53.1,12.1,132.1,12.1,132.1-6.2,132.1-12.1S375.4,77.3,296.4,77.3Z"/><path class="a" d="M296.4,101.7c-71.6,0-145.7-4.6-145.7-12.3s74.1-12.3,145.7-12.3,145.7,4.6,145.7,12.3S368.1,101.7,296.4,101.7Zm0-23.9c-86.8,0-145.1,6-145.1,11.6S209.6,101,296.4,101s145.1-6,145.1-11.6S383.2,77.8,296.4,77.8Z"/><path class="a" d="M296.4,103.9c-76.8,0-156.3-5.4-156.3-14.5s79.4-14.5,156.3-14.5,156.3,5.4,156.3,14.5S373.2,103.9,296.4,103.9Zm0-28.4c-93.1,0-155.6,7.2-155.6,13.9s62.5,13.9,155.6,13.9,155.6-7.2,155.6-13.9S389.5,75.5,296.4,75.5Z"/><path class="a" d="M296.4,107.2c-97.5,0-173.9-7.8-173.9-17.8s76.4-17.8,173.9-17.8,173.9,7.8,173.9,17.8S394,107.2,296.4,107.2Zm0-35c-46.4,0-90,1.8-122.7,5.1s-50.6,7.6-50.6,12,18.4,8.8,50.6,12,76.4,5.1,122.7,5.1,90-1.8,122.7-5.1,50.6-7.6,50.6-12-18.4-8.8-50.6-12S342.8,72.2,296.4,72.2Z"/><path class="a" d="M296.4,110.9c-50.4,0-97.7-2.2-133.4-6.2-20.7-2.3-55.5-7.4-55.5-15.3s34.8-13,55.5-15.3c35.6-4,83-6.2,133.4-6.2s97.7,2.2,133.4,6.2c20.7,2.3,55.5,7.4,55.5,15.3s-34.8,13-55.5,15.3C394.2,108.7,346.8,110.9,296.4,110.9Zm0-42.4c-50.4,0-97.7,2.2-133.3,6.2s-55,9.3-55,14.7,20,10.7,55,14.7,82.9,6.2,133.3,6.2,97.7-2.2,133.3-6.2,55-9.3,55-14.7-20-10.7-55-14.7S346.8,68.5,296.4,68.5Z"/><path class="a" d="M296.4,114.4c-56.1,0-108.9-2.6-148.6-7.2C124.8,104.5,86,98.6,86,89.4s38.7-15.1,61.8-17.8c39.7-4.7,92.5-7.2,148.6-7.2S405.3,66.9,445,71.6c23.1,2.7,61.8,8.6,61.8,17.8s-38.7,15.1-61.8,17.8C405.3,111.9,352.6,114.4,296.4,114.4Zm0-49.4c-56.1,0-108.9,2.6-148.5,7.2S86.7,83.1,86.7,89.4,109,102,147.9,106.6s92.4,7.2,148.5,7.2,108.9-2.6,148.5-7.2,61.3-10.8,61.3-17.2S483.9,76.8,445,72.2,352.5,65,296.4,65Z"/><path class="a" d="M296.4,119.7c-61,0-118.3-3.1-161.4-8.8-25.1-3.3-67.1-10.5-67.1-21.5S110,71.2,135,67.9c43.1-5.7,100.4-8.8,161.4-8.8s118.3,3.1,161.4,8.8c25.1,3.3,67.1,10.5,67.1,21.5s-42,18.2-67.1,21.5C414.7,116.5,357.4,119.7,296.4,119.7Zm0-59.9c-60.9,0-118.2,3.1-161.3,8.8S68.6,81.7,68.6,89.4s24.3,15.3,66.6,20.9S235.5,119,296.4,119s118.2-3.1,161.3-8.8,66.6-13.2,66.6-20.9S500,74.1,457.7,68.5,357.4,59.8,296.4,59.8Z"/><path class="a" d="M296.4,125.9c-67,0-130-3.8-177.4-10.6S45.2,99.2,45.2,89.4s26.2-19,73.8-25.9S229.4,52.9,296.4,52.9s130,3.8,177.4,10.6,73.8,16.1,73.8,25.9-26.2,19-73.8,25.9S363.5,125.9,296.4,125.9Zm0-72.4c-67,0-130,3.8-177.4,10.6S45.9,80,45.9,89.4s26.7,18.6,73.2,25.3,110.4,10.6,177.4,10.6,130-3.8,177.4-10.6S547,98.8,547,89.4s-26.7-18.6-73.2-25.3S363.4,53.5,296.4,53.5Z"/><path class="a" d="M296.4,133.6c-72.8,0-141.2-4.6-192.7-12.8S23.6,101.3,23.6,89.4s28.4-23,80.1-31.3S223.6,45.2,296.4,45.2s141.2,4.6,192.7,12.8,80.1,19.4,80.1,31.3-28.4,23-80.1,31.3S369.2,133.6,296.4,133.6Zm0-87.7c-72.8,0-141.2,4.6-192.6,12.8S24.3,78,24.3,89.4s29,22.6,79.5,30.7,119.9,12.8,192.6,12.8,141.2-4.6,192.6-12.8,79.5-19.3,79.5-30.7-29-22.6-79.5-30.7S369.2,45.9,296.4,45.9Z"/><path class="a" d="M296.4,106.2c-92.2,0-164.5-7.4-164.5-16.8s72.3-16.8,164.5-16.8S460.9,80,460.9,89.4,388.7,106.2,296.4,106.2Zm0-32.9c-88.8,0-163.9,7.4-163.9,16.1s75,16.1,163.9,16.1,163.9-7.4,163.9-16.1S385.3,73.3,296.4,73.3Z"/><path class="a" d="M296.4,110C194.2,110,114,101,114,89.4s80.1-20.6,182.4-20.6,182.4,9.1,182.4,20.6S398.7,110,296.4,110Zm0-40.6c-48.6,0-94.3,2.1-128.7,5.9s-53,8.9-53,14,19.3,10.3,53,14,80.1,5.9,128.7,5.9,94.3-2.1,128.7-5.9,53-8.9,53-14-19.3-10.3-53-14S345.1,69.4,296.4,69.4Z"/><path class="a" d="M296.4,113.8c-52.4,0-101.6-2.5-138.7-7.1-21.5-2.6-57.7-8.4-57.7-17.3s36.1-14.7,57.7-17.4c37-4.6,86.3-7.1,138.7-7.1s101.6,2.5,138.7,7.1c21.5,2.6,57.7,8.4,57.7,17.4s-36.1,14.7-57.7,17.3C398.1,111.3,348.8,113.8,296.4,113.8Zm0-48.2c-52.4,0-101.6,2.5-138.6,7.1s-57.1,10.6-57.1,16.7,20.8,12.3,57.1,16.7,86.2,7.1,138.6,7.1S398,110.7,435,106.1s57.1-10.6,57.1-16.7S471.3,77.1,435,72.7,348.8,65.6,296.4,65.6Z"/><path class="a" d="M296.4,119.5c-58.1,0-112.7-3.1-153.8-8.7s-64-13.2-64-21.3,22.7-15.7,64-21.3,95.7-8.7,153.8-8.7,112.7,3.1,153.8,8.7,64,13.2,64,21.3-22.7,15.7-64,21.3S354.5,119.5,296.4,119.5Zm0-59.5c-58.1,0-112.6,3.1-153.7,8.7S79.3,81.7,79.3,89.4s23.1,15.2,63.4,20.7,95.6,8.7,153.7,8.7,112.6-3.1,153.7-8.7,63.4-13.1,63.4-20.7-23.1-15.2-63.4-20.7S354.5,60,296.4,60Z"/><path class="a" d="M296.4,123.8c-63.4,0-123-3.5-167.8-10S58.9,98.7,58.9,89.4,83.7,71.5,128.6,65,233.1,55,296.4,55s123,3.5,167.8,10S534,80.1,534,89.4s-24.8,17.9-69.8,24.4S359.8,123.8,296.4,123.8Zm0-68.1c-63.3,0-122.9,3.5-167.7,10s-69.2,15-69.2,23.8,25.2,17.5,69.2,23.8,104.3,10,167.7,10,122.9-3.5,167.7-10,69.2-15,69.2-23.8-25.2-17.5-69.2-23.8S359.8,55.7,296.4,55.7Z"/><path class="a" d="M296.4,131.8c-70.3,0-136.4-4.4-186.1-12.3S33,100.8,33,89.4s27.5-22.1,77.3-30S226.1,47,296.4,47s136.4,4.4,186.1,12.3,77.3,18.6,77.3,30-27.5,22.1-77.3,30S366.7,131.8,296.4,131.8Zm0-84.1c-70.3,0-136.3,4.4-186,12.3S33.7,78.5,33.7,89.4s28,21.6,76.8,29.4,115.7,12.3,186,12.3,136.3-4.4,186-12.3,76.8-18.5,76.8-29.4-28-21.6-76.8-29.4S366.7,47.7,296.4,47.7Z"/><path class="a" d="M296.4,139.6c-75.7,0-146.8-5.2-200.4-14.6S12.8,102.9,12.8,89.4,42.4,63.3,96.1,53.8,220.8,39.2,296.4,39.2s146.8,5.2,200.4,14.6S580,75.9,580,89.4s-29.6,26.1-83.2,35.6S372.1,139.6,296.4,139.6Zm0-99.8c-156,0-283,22.2-283,49.6S140.4,139,296.4,139s283-22.2,283-49.6S452.5,39.8,296.4,39.8Z"/><path class="a" d="M296.4,147.7c-79.1,0-153.5-6-209.4-17S0,105.1,0,89.4,30.9,59.1,87,48.1s130.3-17,209.4-17,153.5,6,209.4,17,87,25.7,87,41.3-30.9,30.3-87,41.3S375.5,147.7,296.4,147.7Zm0-116C133.3,31.7.6,57.6,0.6,89.4s132.7,57.7,295.8,57.7,295.8-25.9,295.8-57.7S459.5,31.7,296.4,31.7Z"/><polygon class="b" points="198.1 40.9 246.8 90.2 296.8 41.1 198.1 40.9"/><polygon class="a" points="296.3 41 345 90.3 395.1 41.2 296.3 41"/><polygon class="c" points="345.1 90.3 296.4 41 246.4 90.1 345.1 90.3"/><polygon class="d" points="296.6 0 296.6 41.1 255.8 41.1 296.6 0"/><polygon class="e" points="296.6 0.1 296.6 41.2 336.5 41.2 296.6 0.1"/><path class="f" d="M302.7,75.7l5.8,8.7h-4.3l-6.8-10.3-6.8,10.3h-4.3l5.8-8.7h-8.3V72.4h27.2v3.3h-8.3Z"/><path class="f" d="M310.9,65.8v3.3H283.8V65.8h8.1l-5.7-8.6h4.3l6.8,10.4,6.9-10.4h4.3l-5.7,8.6h8.1Z"/></svg>