<svg xmlns="http://www.w3.org/2000/svg" xmlns:xlink="http://www.w3.org/1999/xlink" viewBox="0 0 250 250"><defs><style>.a{fill:url(#a);}.b{fill:#fff;}</style><linearGradient id="a" x1="125" x2="125" y2="250" gradientUnits="userSpaceOnUse"><stop offset="0" stop-color="#ef5495"/><stop offset="1" stop-color="#f37163"/></linearGradient></defs><title>ax-btc</title><circle class="a" cx="125" cy="125" r="125"/><path class="b" d="M166.7,68.1c-1.4-14.9-14.2-19.9-30.3-21.3V26.4H123.8V46.6h-9.9V26.4H101.4V47H76V60.5s9.2-.2,9,0A6.4,6.4,0,0,1,92.1,66v56.3a4.7,4.7,0,0,1-1.4,3.1,5.7,5.7,0,0,1-3.3,1.2c0.2,0.2-9,0-9,0L76,141.5h25.1v20.8h12.5V141.7h9.9v20.6h12.5V141.7c21.1-1.2,35.7-6.4,37.6-26.3,1.4-15.9-5.9-23-18-25.8C163.1,85.6,167.6,79,166.7,68.1Zm-17.5,44.5c0,15.6-26.5,13.7-35,13.7V98.9C122.4,98.9,149.2,96.3,149.2,112.6Zm-5.9-38.8c0,14.2-22.3,12.5-29.4,12.5V61.2C121,61.2,143.3,59.1,143.3,73.8Z"/><path class="b" d="M110.4,190.5a18.1,18.1,0,0,1,6.8,6.8,19.1,19.1,0,0,1,2.5,9.6v16a2.5,2.5,0,0,1-.7,1.8,2.6,2.6,0,0,1-1.9.7,2.6,2.6,0,0,1-1.9-.7,2.5,2.5,0,0,1-.7-1.9v-4.1a16.8,16.8,0,0,1-6,5.1,17.5,17.5,0,0,1-8.1,1.9,17.9,17.9,0,0,1-15.9-9.3,19.4,19.4,0,0,1-2.4-9.6,19.1,19.1,0,0,1,2.5-9.6,18,18,0,0,1,6.8-6.8A19.9,19.9,0,0,1,110.4,190.5Zm-2.6,28.8a13.2,13.2,0,0,0,4.9-5.1,15.4,15.4,0,0,0,0-14.5,13.7,13.7,0,0,0-23.9,0,15.4,15.4,0,0,0,0,14.5,13.1,13.1,0,0,0,5,5.1,13.7,13.7,0,0,0,7,1.8A13.6,13.6,0,0,0,107.8,219.3Z"/><path class="b" d="M158.1,223.3a2.1,2.1,0,0,1-.7,1.6,2.3,2.3,0,0,1-1.6.6,3,3,0,0,1-1.4-.3,2.8,2.8,0,0,1-1-1l-11.1-14.2-11.5,14.6a2.1,2.1,0,0,1-1.8.8,2.3,2.3,0,0,1-2.4-2.3,2.6,2.6,0,0,1,.7-1.8L139,206.7l-11.1-14.1a2.6,2.6,0,0,1-.7-1.8,2.4,2.4,0,0,1,.6-1.7,2.3,2.3,0,0,1,1.8-.7,2.7,2.7,0,0,1,2,.8l10.9,14.1,10.8-13.7a2.8,2.8,0,0,1,2.2-1.2,2.3,2.3,0,0,1,2.4,2.3,3.2,3.2,0,0,1-.7,2l-11.3,14,11.5,14.8A3,3,0,0,1,158.1,223.3Z"/></svg>