<svg xmlns="http://www.w3.org/2000/svg" xmlns:xlink="http://www.w3.org/1999/xlink" viewBox="0 0 250 250"><defs><style>.a{fill:url(#a);}.b{fill:#fff;}</style><linearGradient id="a" x1="125" x2="125" y2="250" gradientUnits="userSpaceOnUse"><stop offset="0" stop-color="#ef5495"/><stop offset="1" stop-color="#f37163"/></linearGradient></defs><title>ax-eth</title><circle class="a" cx="125" cy="125" r="125"/><polygon class="b" points="125 128.2 83.3 103.5 125 162.3 166.7 103.5 125 128.2"/><polygon class="b" points="166.7 95.6 125 26.4 83.3 95.6 125 120.3 166.7 95.6"/><path class="b" d="M109.2,190.5a18.1,18.1,0,0,1,6.8,6.8,19.1,19.1,0,0,1,2.5,9.6v16a2.5,2.5,0,0,1-.7,1.8,2.6,2.6,0,0,1-1.9.7,2.6,2.6,0,0,1-1.9-.7,2.5,2.5,0,0,1-.7-1.9v-4.1a16.8,16.8,0,0,1-6,5.1,17.5,17.5,0,0,1-8.1,1.9,17.9,17.9,0,0,1-15.9-9.3,19.4,19.4,0,0,1-2.4-9.6,19.1,19.1,0,0,1,2.5-9.6,18,18,0,0,1,6.8-6.8A19.9,19.9,0,0,1,109.2,190.5Zm-2.6,28.8a13.2,13.2,0,0,0,4.9-5.1,15.4,15.4,0,0,0,0-14.5,13.7,13.7,0,0,0-23.9,0,15.4,15.4,0,0,0,0,14.5,13.1,13.1,0,0,0,5,5.1,13.7,13.7,0,0,0,7,1.8A13.6,13.6,0,0,0,106.6,219.3Z" transform="translate(0 0)"/><path class="b" d="M156.9,223.3a2.1,2.1,0,0,1-.7,1.6,2.3,2.3,0,0,1-1.6.6,3,3,0,0,1-1.4-.3,2.8,2.8,0,0,1-1-1l-11.1-14.2-11.5,14.6a2.1,2.1,0,0,1-1.8.8,2.3,2.3,0,0,1-2.4-2.3,2.6,2.6,0,0,1,.7-1.8l11.8-14.7-11.1-14.1a2.6,2.6,0,0,1-.7-1.8,2.4,2.4,0,0,1,.6-1.7,2.3,2.3,0,0,1,1.8-.7,2.7,2.7,0,0,1,2,.8l10.9,14.1L152,189.6a2.8,2.8,0,0,1,2.2-1.2,2.3,2.3,0,0,1,2.4,2.3,3.2,3.2,0,0,1-.7,2l-11.3,14,11.5,14.8A3,3,0,0,1,156.9,223.3Z" transform="translate(0 0)"/></svg>