<svg xmlns="http://www.w3.org/2000/svg" xmlns:xlink="http://www.w3.org/1999/xlink" viewBox="0 0 250 250"><defs><style>.a{fill:url(#a);}.b{fill:#fff;}</style><linearGradient id="a" x1="125" x2="125" y2="250" gradientUnits="userSpaceOnUse"><stop offset="0" stop-color="#ef5495"/><stop offset="1" stop-color="#f37163"/></linearGradient></defs><title>ax-usd</title><circle class="a" cx="125" cy="125" r="125"/><path class="b" d="M161.9,114.4c0-19.7-11.6-26.5-34.7-29.3-16.5-2.3-19.8-6.8-19.8-14.7s5.5-13,16.5-13,15.4,3.4,18.2,11.8a4.2,4.2,0,0,0,3.9,2.8h8.8a3.8,3.8,0,0,0,3.9-3.9V67.6a27.8,27.8,0,0,0-24.8-23.1V30.9c0-2.3-1.6-3.9-4.4-4.5h-8.3c-2.2,0-3.9,1.7-4.4,4.5v13c-16.5,2.3-27,13.5-27,27.6,0,18.6,11,25.9,34.1,28.8,15.4,2.8,20.4,6.2,20.4,15.2s-7.7,15.2-18.2,15.2c-14.3,0-19.3-6.2-20.9-14.7a4,4,0,0,0-3.9-3.4H92a3.8,3.8,0,0,0-3.9,3.9v0.6c2.2,14.1,11,24.2,29.2,27.1v13.5c0,2.3,1.6,3.9,4.4,4.5h8.2c2.2,0,3.9-1.7,4.4-4.5V144.3c16.5-2.8,27.5-14.7,27.5-29.9h0Z"/><path class="b" d="M108.5,190.5a18.1,18.1,0,0,1,6.8,6.8,19.1,19.1,0,0,1,2.5,9.6v16a2.5,2.5,0,0,1-.7,1.8,2.6,2.6,0,0,1-1.9.7,2.6,2.6,0,0,1-1.9-.7,2.5,2.5,0,0,1-.7-1.9v-4.1a16.8,16.8,0,0,1-6,5.1,17.5,17.5,0,0,1-8.1,1.9,17.9,17.9,0,0,1-15.9-9.3A19.4,19.4,0,0,1,80,207a19.1,19.1,0,0,1,2.5-9.6,18,18,0,0,1,6.8-6.8A19.9,19.9,0,0,1,108.5,190.5Zm-2.6,28.8a13.2,13.2,0,0,0,4.9-5.1,15.4,15.4,0,0,0,0-14.5,13.7,13.7,0,0,0-23.9,0,15.4,15.4,0,0,0,0,14.5,13.1,13.1,0,0,0,5,5.1,13.7,13.7,0,0,0,7,1.8A13.6,13.6,0,0,0,105.8,219.3Z"/><path class="b" d="M156.2,223.3a2.1,2.1,0,0,1-.7,1.6,2.3,2.3,0,0,1-1.6.6,3,3,0,0,1-1.4-.3,2.8,2.8,0,0,1-1-1l-11.1-14.2-11.5,14.6a2.1,2.1,0,0,1-1.8.8,2.3,2.3,0,0,1-2.4-2.3,2.6,2.6,0,0,1,.7-1.8L137,206.7l-11.1-14.1a2.6,2.6,0,0,1-.7-1.8,2.4,2.4,0,0,1,.6-1.7,2.3,2.3,0,0,1,1.8-.7,2.7,2.7,0,0,1,2,.8l10.9,14.1,10.8-13.7a2.8,2.8,0,0,1,2.2-1.2,2.3,2.3,0,0,1,2.4,2.3,3.2,3.2,0,0,1-.7,2l-11.3,14,11.5,14.8A3,3,0,0,1,156.2,223.3Z"/></svg>