<svg xmlns="http://www.w3.org/2000/svg" viewBox="0 0 141 138"><defs><style>.a{fill:#fff;}</style></defs><title>diko</title><path class="a" d="M0,138Q0,69,0,0H141q0,69,0,138H0ZM57.2,98.7l3.1,1.3,43,18a5.2,5.2,0,0,1,3.4,3.5,10.7,10.7,0,0,0,13.7,6.6c6.1-2.3,8.9-8.3,6.6-14.4a10.9,10.9,0,0,0-14.1-6.3,5.3,5.3,0,0,1-3.5-.1L56.1,84.9c-4.2-1.8-5.7-1.1-7.5,3.1l-7.4,17.5c-2.2,5.3-1.7,6.5,3.6,8.7,3.8,1.5,5.5.9,7.1-2.8ZM98.6,79.8c6.9-16.2,13.6-32,20.3-47.8a3.3,3.3,0,0,1,1.8-1.5c6.4-2.4,9.3-8.5,6.8-14.7a11,11,0,0,0-14.3-6.1c-5.9,2.5-8.3,9-5.9,15a4.7,4.7,0,0,1,0,3.2c-1.7,4.4-3.7,8.7-5.5,13.1L84.7,81.5c-1.3,3-.9,5.1,1.6,6.2,7.3,3.2,14.7,6.3,22.1,9.3,1.9,0.8,3.4,0,4.4-1.7a21.8,21.8,0,0,0,1.2-2.5c1.9-4.2,1.3-5.8-2.9-7.6ZM38.1,57.2a5.2,5.2,0,0,1-.1,1q-9.8,23.6-19.6,47.3a4.3,4.3,0,0,1-1.9,1.7c-4.1,2.3-6.6,5.5-6.5,10.4A10.9,10.9,0,0,0,28.8,125a10.5,10.5,0,0,0,1.8-12.3,5.1,5.1,0,0,1-.1-5.1q10.9-26,21.6-52.1c1.5-3.7.7-5.5-3-7L31.5,41.2c-5.2-2.2-6.3-1.8-8.6,3.4s-1.2,5.6,2.9,7.4Zm42-19L79,37.9,33.6,18.3c-1.6-.7-2-1.8-2.4-3.1A10.9,10.9,0,0,0,17.3,8.3a11.1,11.1,0,0,0-6.7,14,10.9,10.9,0,0,0,14.1,6.8,5.6,5.6,0,0,1,3.7.1l53.4,23c3.3,1.4,5.1.9,6.4-2Q92.7,39.8,97,29.3c0.4-1,.5-3.1-0.1-3.5a23,23,0,0,0-7.3-3.7c-2.4-.6-3.4,1.9-4.2,3.8C83.7,30.1,81.9,34.1,80.1,38.2Zm2.5-15.6a9.4,9.4,0,0,0-1.8-1.5L56.5,10.5a2.2,2.2,0,0,0-3.2,1.3L51,17.1c-1.5,3.5-1.4,3.8,2.2,5.3L73,30.9c6.2,2.7,5.2,2,7.4-3C81.1,26.2,81.8,24.5,82.6,22.6Zm31.3,59.7a7.6,7.6,0,0,0,2-1.9c3.5-8,6.9-16,10.3-24,0.7-1.6.3-2.7-1.4-3.4l-6.4-2.8c-1.6-.8-2.7-0.3-3.4,1.3-3.4,8-6.9,16-10.2,24.1-0.3.8-.1,2.5,0.5,2.8C107.9,79.7,110.7,80.8,113.9,82.2ZM32.7,60.1a7.8,7.8,0,0,0-1.9-1.9c-2.1-1-4.3-1.8-6.4-2.7s-2.7-.2-3.4,1.4L11,81.1c-0.7,1.7-.2,2.7,1.4,3.4l5.8,2.4c2.8,1.1,3.2.9,4.3-1.8l9.4-22.6Zm49.7,66.5a5.6,5.6,0,0,0,1.7-1.5c1.1-2.3,2.1-4.7,3.1-7.1s0.2-2.4-1.2-3L61.3,104.7c-1.5-.6-2.5-0.1-3.1,1.4s-1.5,3.7-2.3,5.5-1.1,3.4,1.9,4.7L80,125.8Z"/><path d="M57.2,98.7l-5.3,12.6c-1.6,3.7-3.3,4.4-7.1,2.8-5.4-2.2-5.9-3.4-3.6-8.7L48.6,88c1.8-4.2,3.3-4.9,7.5-3.1l53.3,22.4a5.3,5.3,0,0,0,3.5.1,10.9,10.9,0,0,1,14.1,6.3c2.3,6-.5,12.1-6.6,14.4a10.7,10.7,0,0,1-13.7-6.6,5.2,5.2,0,0,0-3.4-3.5l-43-18Zm59.7,25.2a6.2,6.2,0,0,0,6.1-6.3,6.5,6.5,0,0,0-6.3-6.2,6.7,6.7,0,0,0-6.2,6.4A6.5,6.5,0,0,0,116.9,123.9Z"/><path d="M98.6,79.8L111,85.2c4.1,1.8,4.7,3.4,2.9,7.6a21.8,21.8,0,0,1-1.2,2.5c-1,1.7-2.5,2.5-4.4,1.7-7.4-3.1-14.8-6.1-22.1-9.3-2.5-1.1-2.9-3.2-1.6-6.2l17.3-40.4c1.9-4.4,3.8-8.7,5.5-13.1a4.7,4.7,0,0,0,0-3.2c-2.5-6.1,0-12.6,5.9-15a11,11,0,0,1,14.3,6.1c2.4,6.1-.4,12.2-6.8,14.7A3.3,3.3,0,0,0,119,32C112.2,47.8,105.5,63.7,98.6,79.8Zm18.8-66a6.1,6.1,0,0,0-6.1,6.2,6.2,6.2,0,0,0,12.3,0A6.1,6.1,0,0,0,117.4,13.8Z"/><path d="M38.1,57.2L25.8,52c-4.2-1.8-4.7-3.2-2.9-7.4s3.3-5.6,8.6-3.4l17.7,7.4c3.7,1.5,4.5,3.4,3,7q-10.8,26-21.6,52.1a5.1,5.1,0,0,0,.1,5.1A10.5,10.5,0,0,1,28.8,125,10.9,10.9,0,0,1,10,117.6c-0.1-4.9,2.4-8.1,6.5-10.4a4.3,4.3,0,0,0,1.9-1.7q9.9-23.6,19.6-47.3A5.2,5.2,0,0,0,38.1,57.2ZM14.8,117.6a6,6,0,0,0,6.2,6.1,6.3,6.3,0,0,0,6.1-6.3,6.1,6.1,0,0,0-6.3-6A6,6,0,0,0,14.8,117.6Z"/><path d="M80.1,38.2c1.8-4.1,3.6-8.1,5.3-12.2,0.8-2,1.8-4.4,4.2-3.8a23,23,0,0,1,7.3,3.7c0.6,0.4.5,2.4,0.1,3.5q-4.3,10.5-8.9,20.9c-1.3,2.9-3.1,3.4-6.4,2l-53.4-23a5.6,5.6,0,0,0-3.7-.1,10.9,10.9,0,0,1-14.1-6.8,11.1,11.1,0,0,1,6.7-14,10.9,10.9,0,0,1,13.9,6.8c0.5,1.4.9,2.5,2.4,3.1L79,37.9ZM14.8,18.5A6.3,6.3,0,0,0,20.9,25,6.5,6.5,0,0,0,27,19a6.4,6.4,0,0,0-6.2-6.5C17.8,12.3,14.8,15.3,14.8,18.5Z"/><path d="M82.6,22.6c-0.8,2-1.5,3.7-2.3,5.3-2.2,5-1.2,5.8-7.4,3L53.2,22.4c-3.6-1.6-3.7-1.8-2.2-5.3l2.3-5.3a2.2,2.2,0,0,1,3.2-1.3L80.8,21.1A9.4,9.4,0,0,1,82.6,22.6Z"/><path d="M113.9,82.2c-3.2-1.4-6-2.5-8.6-3.9-0.5-.3-0.8-2-0.5-2.8,3.3-8.1,6.8-16.1,10.2-24.1,0.7-1.6,1.7-2.1,3.4-1.3l6.4,2.8c1.7,0.7,2,1.8,1.4,3.4-3.4,8-6.8,16.1-10.3,24A7.6,7.6,0,0,1,113.9,82.2Z"/><path d="M32.7,60.1l-0.9,2.4L22.4,85.1c-1.1,2.7-1.6,2.9-4.3,1.8l-5.8-2.4c-1.6-.7-2.1-1.7-1.4-3.4L21,56.9c0.7-1.6,1.7-2.1,3.4-1.4s4.3,1.7,6.4,2.7A7.8,7.8,0,0,1,32.7,60.1Z"/><path d="M82.3,126.6l-2.3-.9-22.3-9.4c-3-1.3-3.1-1.7-1.9-4.7s1.6-3.7,2.3-5.5,1.6-2.1,3.1-1.4l24.6,10.4c1.4,0.6,1.9,1.5,1.2,3s-2,4.8-3.1,7.1A5.6,5.6,0,0,1,82.3,126.6Z"/><path class="a" d="M116.9,123.9a6.5,6.5,0,0,1-6.3-6.1,6.7,6.7,0,0,1,6.2-6.4,6.5,6.5,0,0,1,6.3,6.2A6.2,6.2,0,0,1,116.9,123.9Z"/><path class="a" d="M117.4,13.8a6.1,6.1,0,1,1,0,12.3,6,6,0,0,1-6.1-6.1A6.1,6.1,0,0,1,117.4,13.8Z"/><path class="a" d="M14.8,117.6a6,6,0,0,1,6-6.3,6.1,6.1,0,0,1,6.3,6,6.3,6.3,0,0,1-6.1,6.3A6,6,0,0,1,14.8,117.6Z"/><path class="a" d="M14.8,18.5c0-3.2,3-6.2,6-6.1A6.4,6.4,0,0,1,27,19,6.5,6.5,0,0,1,20.9,25,6.3,6.3,0,0,1,14.8,18.5Z"/></svg>