<?xml version="1.0" encoding="utf-8"?>
<!-- Generator: Adobe Illustrator 19.2.1, SVG Export Plug-In . SVG Version: 6.00 Build 0)  -->
<svg version="1.1" id="Layer_1" xmlns="http://www.w3.org/2000/svg" xmlns:xlink="http://www.w3.org/1999/xlink" x="0px" y="0px"
	 viewBox="0 0 2000 2000" style="enable-background:new 0 0 2000 2000;" xml:space="preserve">
<style type="text/css">
	.st0{fill:#FBEC9A;}
	.st1{fill:#FACB1B;}
	.st2{fill:#FBE158;}
	.st3{fill:#FCF6C2;}
	.st4{fill:#8E6134;}
</style>
<g id="Multicolor">
	<g>
		<path class="st0" d="M1009,133.9c478.7,0,868.1,389.4,868.1,868.1s-389.4,868.1-868.1,868.1S140.8,1480.7,140.8,1002
			S530.3,133.9,1009,133.9 M1009,9.9C461,9.9,16.8,454.1,16.8,1002S461,1994.2,1009,1994.2s992.1-444.2,992.1-992.1
			S1556.9,9.9,1009,9.9L1009,9.9z"/>
		<path class="st1" d="M1009,1870.2c-478.7,0-868.1-389.4-868.1-868.1S530.3,133.9,1009,133.9s868.1,389.4,868.1,868.1
			S1487.6,1870.2,1009,1870.2z"/>
		<path class="st2" d="M1009,133.9c-478.7,0-868.1,389.4-868.1,868.1c0,246.4,103.3,468.9,268.7,627.1L1636,402.6
			C1477.9,237.2,1255.3,133.9,1009,133.9z"/>
		<path class="st3" d="M140.8,1002c0-478.7,389.4-868.1,868.1-868.1c245.7,0,467.7,102.8,625.8,267.4l88-88
			C1542.3,126.4,1289.3,9.9,1009,9.9C461,9.9,16.8,454.1,16.8,1002c0,280.3,116.5,533.4,303.4,713.8l88-88
			C243.6,1469.8,140.8,1247.7,140.8,1002z"/>
		<g>
			<path class="st4" d="M1454.7,1366.7c-80.4,104.2-180.1,174.2-333.4,174.2c-220.3,0-375.1-141.4-431.6-352.7h-80.4
				c-35.7,0-64-28.3-64-64c0-34.2,28.3-64,64-64h58c-1.5-17.9-1.5-37.2-1.5-56.6c0-22.3,0-46.1,3-68.5h-59.5
				c-35.7,0-64-28.3-64-62.5c0-35.7,28.3-64,64-64h83.3c58-200.9,211.4-345.3,422.7-345.3c157.8,0,253,62.5,330.4,151.8
				c11.9,11.9,23.8,34.2,23.8,61c0,47.6-40.2,86.3-87.8,86.3c-31.3,0-52.1-14.9-64-29.8c-56.6-68.5-114.6-105.7-206.9-105.7
				c-107.2,0-187.5,69.9-229.2,181.6h264.9c34.2,0,62.5,28.3,62.5,64c0,34.2-28.3,62.5-62.5,62.5H853.4c-3,20.8-3,43.2-3,65.5
				c0,20.8,0,40.2,1.5,59.5h294.7c34.2,0,62.5,29.8,62.5,64c0,35.7-28.3,64-62.5,64H878.7c41.7,119.1,126.5,189,244.1,189
				c89.3,0,147.3-43.2,203.9-113.1c14.9-17.9,35.7-29.8,64-29.8c44.6,0,81.9,35.7,81.9,80.4
				C1472.6,1336.9,1463.6,1356.3,1454.7,1366.7z"/>
		</g>
	</g>
</g>
</svg>
