<?xml version="1.0" encoding="utf-8"?>
<!-- Generator: Adobe Illustrator 19.2.1, SVG Export Plug-In . SVG Version: 6.00 Build 0)  -->
<svg version="1.1" id="Layer_1" xmlns="http://www.w3.org/2000/svg" xmlns:xlink="http://www.w3.org/1999/xlink" x="0px" y="0px"
	 viewBox="0 0 300 300" style="enable-background:new 0 0 300 300;" xml:space="preserve">
<style type="text/css">
	.st0{fill:#EAC836;}
	.st1{fill:#F7D239;}
	.st2{fill:#E3BB12;}
	.st3{fill:#FEF5A5;}
</style>
<title>gold</title>
<path class="st0" d="M295,136.4l-18.4-50.1c-0.9-2.5-1.8-5.8-4.6-6.2c-4.6-0.8-9.1-3-13.9-2.4c-0.6,1.4-0.1,2,1.4,2.2
	c3.7,0.6,7.3,1.5,11,2.2l0.5,0.5c-0.1,0.8-0.6,1.6-1.4,2c-19.7,10.3-39.1,21.2-59.3,30.4c-27.1,12.5-53.3,26.4-80,39.3
	c-2.4,1-4.2,3.3-4.6,6c-1.8,8.1,15.1,50.3,19,59.5s2.9,9.5-6.3,11.3c-0.6,0.2-1,0.6-1.4,1c4,1.7,7.6,1,11.4-1
	c25.7-14.4,51.6-28.6,77.5-43l70.8-39.8c0.5-0.3,0.8-0.9,0.7-1.5C296.8,143.2,296.1,139.7,295,136.4z M274.3,87.2L274.3,87.2z"/>
<path class="st1" d="M259.4,79.8c-1.5-0.2-1.8-0.9-1.4-2.2c-0.2-0.3-0.6-0.6-0.9-0.7l-68.8-9.8c-3.2-0.5-6,0.6-8.9,1.8L29.7,138.6
	c-3.3,1.4-6,4.3-7.3,7.7c-3.2,8.4-6.3,16.8-9.8,25.1s-5.5,17.1-10.4,24.7v6.9c2.7,3.6,6.3,5,10.7,5.8c25.4,4.7,50.6,9.8,76,14.5
	c15.9,3,31.8,6.7,48,8.6c0.3-0.5,0.8-0.8,1.4-1c9.2-1.8,9.9-2.7,6.3-11.3s-6-19.3-10.7-28.2c-5.1,1-6.9-2.8-8.3-6.2
	c-3.1-7.1-6.9-14.1-11.3-20.5c-1.6-2.3-3.2-3.8-5.8-4.2c-24-2.9-47.5-8.2-71.5-10.7c-3-0.3-5.9-1.4-8.9-2s-3.1-2.4-1.3-4.3
	c1.3-1.2,2.8-2.1,4.4-2.7l105.5-48.8l14.2-6.6l-45.2,25.1c-2.3,0.7-4.5,1.6-6.6,2.8c-10.8,6-22.9,10.5-30.1,21.9
	c-2.3,3.7-6.6,5.2-10.3,7.1c-1,0.5-2.3,0.9-2.2,2.4c0.1,1.5,1.5,1.5,2.5,1.6l53.7,8.5c6.6,1,12.6-1.7,17.9-4.4
	c27.8-13.9,55.9-27.2,83.1-42.2c15.9-8.8,33-15.6,49.5-23.3c1.8-0.8,4.2-1.2,5.1-3.5L259.4,79.8z"/>
<path class="st2" d="M297,148.2c0.5-0.2,0.8-0.8,0.7-1.4c-0.5-3.5-1.2-7-2.2-10.4l-7.1-19.3c-18.6,9.9-37,19.9-56.1,28.7
	c-31.2,14.3-61.6,30.6-92.6,45.4c-1.8,0.8-3.3,2.3-4.3,4c3.9,10.6,8,20.4,9.6,24.3c3.1,7.4,3,9-2.8,10.5l0.5,2.8
	c2.1-0.2,4.2-0.9,6-2.1c25.7-14.4,51.6-28.6,77.5-43L297,148.2z"/>
<path class="st3" d="M268.5,81.6c-0.2,0.6-0.6,1-0.9,1.4l-1.3,0.9l-1.4,0.6l-1.4,0.6l-6.2,2.9c-8.3,3.8-16.7,7.4-24.9,11.2l-6.1,2.9
	c-4,2-8.2,4-12.1,6.2c-10.3,5.6-20.5,11.1-31,16.3l-10.4,5.2L152,140.1l-20.9,10.4l-1,0.5l-3.3,1.6l-4.4,1.6c-3,1-6.2,1.3-9.5,0.8
	l-53.7-8.4c-0.8-0.1-1.8-0.1-2.3-0.7c-0.1-0.2-0.2-0.6-0.2-0.9c0-0.6,0.2-1.2,0.7-1.5l1.5-0.8l2.9-1.4c2.9-1.4,5.6-2.9,7.4-5.8
	c1.3-2.1,2.8-4,4.5-5.8c1-1.2,2.2-2.2,3.5-3.2c4.3-3.3,9-6.2,13.8-8.6l4.2-2.2l4.2-2.2l1.5-0.8l0.5-0.2l1-0.5l0.6-0.2l1-0.5h0.5
	l1.5-0.6l45.2-25.1l-14.3,6.6L31.1,140.9c-1.6,0.6-3.1,1.5-4.4,2.7c-1,1-1.6,2.1-1.3,2.9c0.1,0.2,0.3,0.6,0.6,0.7
	c0.6,0.3,1.3,0.6,2,0.7l2.2,0.5c2.2,0.7,4.4,1.2,6.7,1.5l9,1l17.9,2.7l8.9,1.5c11.9,2.1,23.7,4,35.7,5.5c0.9,0.1,1.7,0.3,2.5,0.8
	c1.3,0.8,2.4,2,3.2,3.3c2.2,3.2,4.3,6.6,6.2,9.9c2,3.5,3.7,6.9,5.2,10.5l0.6,1.3l1,1.8c1.4,2.2,5.2,7.8,8.8,7.1
	c-1-3.3-11.1-26.5-10.1-34.8c0.2-2.8,2-5.3,4.5-6.5c26.7-12.9,52.9-26.9,80-39.3c20.2-9.2,39.5-20.3,59.3-30.4
	c0.9-0.5,1.4-1.4,1.4-2.3L268.5,81.6z"/>
</svg>
