<?xml version="1.0" encoding="utf-8"?>
<!-- Generator: Adobe Illustrator 19.2.1, SVG Export Plug-In . SVG Version: 6.00 Build 0)  -->
<svg version="1.1" id="Layer_1" xmlns="http://www.w3.org/2000/svg" xmlns:xlink="http://www.w3.org/1999/xlink" x="0px" y="0px"
	 viewBox="0 0 2000 2000" style="enable-background:new 0 0 2000 2000;" xml:space="preserve">
<style type="text/css">
	.st0{fill:#FFFFFF;}
	.st1{fill:#005FFA;}
</style>
<path class="st0" d="M0,0h2000v2000H0V0z"/>
<g>
	<path class="st1" d="M1419,1579.4h-212.9v-366.5c0-58.7-47.5-106.4-106.2-106.4h-0.1h-306c-117.5,0-212.8-95.3-212.8-212.8v-473
		h212.8v366.6c0,58.7,47.6,106.4,106.3,106.4l0,0h306c117.5,0.1,212.7,95.3,212.8,212.8L1419,1579.4z M801.2,1579.4H588.3V1222
		c117.5,0,212.8,95.2,212.8,212.8L801.2,1579.4z M1198.8,420.6h212.8v357.6c-117.6,0-212.8-95.3-212.8-212.8V420.6z M1000,0
		C447.7,0,0,447.8,0,1000s447.7,1000,1000,1000s1000-447.7,1000-1000S1552.3,0,1000,0L1000,0z"/>
</g>
</svg>
