<?xml version="1.0" encoding="utf-8"?>
<!-- Generator: Adobe Illustrator 19.2.1, SVG Export Plug-In . SVG Version: 6.00 Build 0)  -->
<svg version="1.1" id="Layer_1" xmlns="http://www.w3.org/2000/svg" xmlns:xlink="http://www.w3.org/1999/xlink" x="0px" y="0px"
	 viewBox="0 0 82.6 82.6" style="enable-background:new 0 0 82.6 82.6;" xml:space="preserve">
<path d="M41.3,0C18.5,0,0,18.5,0,41.3s18.5,41.3,41.3,41.3s41.3-18.5,41.3-41.3l0,0l0,0C82.7,18.6,64.3,0.1,41.5,0l0,0H41.3z
	 M42,42.7l-4.3,14.5h23c0.6,0,1.2,0.5,1.2,1.1l0,0v0.4l-2,6.9c-0.2,0.7-0.8,1.1-1.5,1.1H23.2l5.9-20.1l-6.6,2L24,44l6.6-2l8.3-28.2
	c0.2-0.7,0.8-1.1,1.5-1.1h8.9c0.6,0,1.2,0.5,1.2,1.1l0,0v0.4l-7,23.8l6.6-2l-1.4,4.8L42,42.7z"/>
</svg>
