<?xml version="1.0" encoding="utf-8"?>
<!-- Generator: Adobe Illustrator 19.2.1, SVG Export Plug-In . SVG Version: 6.00 Build 0)  -->
<svg version="1.1" id="Layer_1" xmlns="http://www.w3.org/2000/svg" xmlns:xlink="http://www.w3.org/1999/xlink" x="0px" y="0px"
	 viewBox="0 0 339.4 295.3" style="enable-background:new 0 0 339.4 295.3;" xml:space="preserve">
<path d="M198.5,159.2L198.5,159.2c-1.8,0.1-11.1,0.7-31.8,0.7c-16.5,0-28.1-0.5-32.2-0.7l0,0c-63.6-2.8-111.1-13.9-111.1-27.1
	c0-13.3,47.5-24.3,111.1-27.2v43.3c4.2,0.3,16.1,1,32.5,1c19.8,0,29.6-0.8,31.4-1V105c63.5,2.8,110.9,13.9,110.9,27.1
	S261.9,156.4,198.5,159.2L198.5,159.2L198.5,159.2z M198.5,100.5V61.8h88.6v-59H45.9v59h88.6v38.7C62.5,103.8,8.3,118,8.3,135.1
	s54.1,31.3,126.1,34.7v124h64V169.7c71.8-3.3,125.9-17.6,125.9-34.6S270.4,103.8,198.5,100.5L198.5,100.5L198.5,100.5z M198.5,100.5
	L198.5,100.5z"/>
</svg>
