<?xml version="1.0" encoding="utf-8"?>
<!-- Generator: Adobe Illustrator 19.2.1, SVG Export Plug-In . SVG Version: 6.00 Build 0)  -->
<svg version="1.1" id="Layer_1" xmlns="http://www.w3.org/2000/svg" xmlns:xlink="http://www.w3.org/1999/xlink" x="0px" y="0px"
	 viewBox="0 0 2000 2000" style="enable-background:new 0 0 2000 2000;" xml:space="preserve">
<path d="M1546.3,1302.1c0-287.6-172.5-386.2-517.6-427.2C782.2,842,732.9,776.3,732.9,661.2s82.2-189,246.5-189
	c147.9,0,230.1,49.3,271.1,172.5c8.2,24.6,32.9,41.1,57.5,41.1h131.5c32.9,0,57.5-24.6,57.5-57.5v-8.2
	c-32.9-180.8-180.8-320.4-369.7-336.9V86.1c0-32.9-24.6-57.5-65.7-65.7H938.3c-32.9,0-57.5,24.6-65.7,65.7v189
	C626.1,307.9,470,472.2,470,677.7c0,271.1,164.3,377.9,509.4,419c230.1,41.1,304,90.4,304,221.8s-115,221.8-271.1,221.8
	c-213.6,0-287.6-90.4-312.2-213.6c-8.2-32.9-32.9-49.3-57.5-49.3H502.8c-32.9,0-57.5,24.6-57.5,57.5v8.2
	c32.9,205.4,164.3,353.3,435.5,394.4v197.2c0,32.9,24.6,57.5,65.7,65.7h123.2c32.9,0,57.5-24.6,65.7-65.7v-197.2
	C1382,1696.5,1546.3,1523.9,1546.3,1302.1L1546.3,1302.1z"/>
</svg>
