<?xml version="1.0" encoding="utf-8"?>
<!-- Generator: Adobe Illustrator 19.2.1, SVG Export Plug-In . SVG Version: 6.00 Build 0)  -->
<svg version="1.1" id="Layer_1" xmlns="http://www.w3.org/2000/svg" xmlns:xlink="http://www.w3.org/1999/xlink" x="0px" y="0px"
	 viewBox="0 0 300 300" style="enable-background:new 0 0 300 300;" xml:space="preserve">
<title>gold</title>
<path d="M297.3,146.6c-0.6-3.6-1.3-7.1-2.4-10.4l-18.4-50.1c-0.9-2.5-1.8-5.8-4.6-6.2c-0.1,0-83.6-12.8-83.6-12.8
	c-3.2-0.5-6,0.6-8.9,1.8L29.7,138.6c-3.3,1.4-6,4.3-7.3,7.7c-3.2,8.4-6.3,16.8-9.8,25.1c-3.5,8.3-5.5,17.1-10.4,24.7v6.9
	c2.7,3.6,6.3,5,10.7,5.8c25.4,4.7,50.6,9.8,76,14.5c15.9,3,31.8,6.7,48,8.6c0,0,0,0,0,0c4,1.7,7.6,1,11.4-1
	c25.7-14.4,51.6-28.6,77.5-43l70.8-39.8C297.1,147.8,297.4,147.2,297.3,146.6z M269.5,84.4c-19.7,10.3-39.1,21.2-59.3,30.4
	c-27.1,12.5-53.3,26.4-80,39.3c-2.4,1-4.2,3.3-4.6,6c-0.9,4.3,3.3,18,8.1,31.4c-4.9,0.8-6.7-2.9-8.1-6.2
	c-3.1-7.1-6.9-14.1-11.3-20.5c-1.6-2.3-3.2-3.8-5.8-4.2c-24-2.9-47.5-8.2-71.5-10.7c-3-0.3-5.9-1.4-8.9-2c-3-0.6-3.1-2.4-1.3-4.3
	c1.3-1.2,2.8-2.1,4.4-2.7L136.7,92l14.2-6.6l-45.2,25.1c-2.3,0.7-4.5,1.6-6.6,2.8c-10.8,6-22.9,10.5-30.1,21.9
	c-2.3,3.7-6.6,5.2-10.3,7.1c-1,0.5-2.3,0.9-2.2,2.4s1.5,1.5,2.5,1.6l53.7,8.5c6.6,1,12.6-1.7,17.9-4.4
	c27.6-13.8,135.5-66.1,137.7-68.9c0.7,0.1,1.4,0.3,2.1,0.4l0.5,0.5C270.8,83.2,270.3,84,269.5,84.4z"/>
</svg>
