<?xml version="1.0" encoding="utf-8"?>
<!-- Generator: Adobe Illustrator 19.2.1, SVG Export Plug-In . SVG Version: 6.00 Build 0)  -->
<svg version="1.1" id="Layer_1" xmlns="http://www.w3.org/2000/svg" xmlns:xlink="http://www.w3.org/1999/xlink" x="0px" y="0px"
	 viewBox="0 0 192 192" style="enable-background:new 0 0 192 192;" xml:space="preserve">
<path d="M46.4,59c-1.2-1.5-3-2.3-5-2.3H1.2c-0.3,0-0.6-0.1-0.9-0.3C0.1,56.2,0,55.9,0,55.7V28.6c0-0.3,0.1-0.5,0.3-0.7
	c0.2-0.2,0.5-0.4,0.9-0.3h42.5c10.7,0,20,4.4,27.8,13.2l10.3,12.6L61.7,77.9L46.4,59z M120.7,40.4c7.8-8.7,17.1-13,27.9-13H191
	c0.3,0,0.6,0.1,0.8,0.2c0.2,0.2,0.3,0.5,0.2,0.8v27.1c0,0.3-0.1,0.5-0.2,0.7c-0.2,0.2-0.5,0.4-0.8,0.3h-40.2c-1.9,0-3.7,0.8-5,2.3
	l-29.6,36.1l29.8,36.3c1.2,1.4,3,2.2,4.8,2.2H191c0.3,0,0.6,0.1,0.8,0.3c0.2,0.2,0.3,0.6,0.2,0.9v27.1c0,0.3-0.1,0.5-0.2,0.7
	c-0.2,0.2-0.5,0.4-0.8,0.3h-42.3c-10.8,0-20-4.4-27.8-13.2l-24.7-30.1l-24.7,30.1c-7.8,8.8-17.1,13.2-27.9,13.2H1.2
	c-0.3,0-0.6-0.1-0.8-0.3c-0.2-0.2-0.3-0.6-0.2-0.9v-27.1c0-0.3,0.1-0.5,0.2-0.7c0.2-0.2,0.5-0.4,0.8-0.3h40.2c1.9,0,3.7-0.9,5-2.3
	l29.1-35.5L120.7,40.4z"/>
</svg>
