<?xml version="1.0" encoding="utf-8"?>
<!-- Generator: Adobe Illustrator 19.2.1, SVG Export Plug-In . SVG Version: 6.00 Build 0)  -->
<svg version="1.1" id="Layer_1" xmlns="http://www.w3.org/2000/svg" xmlns:xlink="http://www.w3.org/1999/xlink" x="0px" y="0px"
	 viewBox="0 0 2500 2500" style="enable-background:new 0 0 2500 2500;" xml:space="preserve">
<path d="M764.5,1050.5L1250,565l485.8,485.7l282.5-282.5L1250,0L482,768L764.5,1050.5 M0,1250l282.5-282.5L565,1249.9l-282.5,282.5
	L0,1250z M764.5,1449.5L1250,1935l485.7-485.7l282.7,282.3l-0.1,0.2L1250,2500l-768-768l-0.4-0.4L764.5,1449.5 M1935,1250.1
	l282.5-282.5l282.5,282.5l-282.5,282.5L1935,1250.1z"/>
<path d="M1536.5,1249.8L1536.5,1249.8L1250,963.2L1038.1,1175l0,0l-24.3,24.3l-50.2,50.2l-0.4,0.4l0.4,0.4l286.4,286.5l286.7-286.7
	l0.1-0.2L1536.5,1249.8"/>
</svg>
