<svg xmlns="http://www.w3.org/2000/svg" viewBox="0 0 250 250"><defs><style>.a{fill:#231f20;}</style></defs><title>ax-btc-icon</title><path class="a" d="M114.1,98.9v27.5c8.5,0,35,1.9,35-13.7S122.4,98.9,114.1,98.9Z" transform="translate(0 0)"/><path class="a" d="M143.3,73.8c0-14.7-22.3-12.5-29.4-12.5V86.3C121,86.3,143.3,88,143.3,73.8Z" transform="translate(0 0)"/><path class="a" d="M107.8,194.7a13.4,13.4,0,0,0-7-1.9,13.6,13.6,0,0,0-7,1.9,13.4,13.4,0,0,0-5,5.1,15.4,15.4,0,0,0,0,14.5,13.1,13.1,0,0,0,5,5.1,13.7,13.7,0,0,0,7,1.8,13.6,13.6,0,0,0,7-1.8,13.2,13.2,0,0,0,4.9-5.1,15.4,15.4,0,0,0,0-14.5A13.5,13.5,0,0,0,107.8,194.7Z" transform="translate(0 0)"/><path class="a" d="M125,0A125,125,0,1,0,250,125,125,125,0,0,0,125,0Zm-5.3,223a2.5,2.5,0,0,1-.7,1.8,2.6,2.6,0,0,1-1.9.7,2.6,2.6,0,0,1-1.9-.7,2.5,2.5,0,0,1-.7-1.9v-4.1a16.8,16.8,0,0,1-6,5.1,17.5,17.5,0,0,1-8.1,1.9,17.9,17.9,0,0,1-15.9-9.3,19.4,19.4,0,0,1-2.4-9.6,19.1,19.1,0,0,1,2.5-9.6,18,18,0,0,1,6.8-6.8,19.9,19.9,0,0,1,19.2,0,18.1,18.1,0,0,1,6.8,6.8,19.1,19.1,0,0,1,2.5,9.6v16Zm37.7,1.9a2.3,2.3,0,0,1-1.6.6,3,3,0,0,1-1.4-.3,2.8,2.8,0,0,1-1-1l-11.1-14.2-11.5,14.6a2.1,2.1,0,0,1-1.8.8,2.3,2.3,0,0,1-2.4-2.3,2.6,2.6,0,0,1,.7-1.8L139,206.7l-11.1-14.1a2.6,2.6,0,0,1-.7-1.8,2.4,2.4,0,0,1,.6-1.7,2.3,2.3,0,0,1,1.8-.7,2.7,2.7,0,0,1,2,.8l10.9,14.1,10.8-13.7a2.8,2.8,0,0,1,2.2-1.2,2.3,2.3,0,0,1,2.4,2.3,3.2,3.2,0,0,1-.7,2l-11.3,14,11.5,14.8a3,3,0,0,1,.7,1.8A2.1,2.1,0,0,1,157.4,224.9Zm16.4-109.5c-1.9,19.9-16.6,25.1-37.6,26.3v20.6H123.6V141.7h-9.9v20.6H101.1V141.5H76l2.4-14.9s9.2,0.2,9,0a5.7,5.7,0,0,0,3.3-1.2,4.7,4.7,0,0,0,1.4-3.1V66A6.4,6.4,0,0,0,85,60.5c0.2-.2-9,0-9,0V47h25.3V26.4h12.5V46.6h9.9V26.4h12.5V46.8c16.1,1.4,28.9,6.4,30.3,21.3,0.9,10.9-3.6,17.5-10.9,21.5C167.9,92.5,175.2,99.6,173.8,115.4Z" transform="translate(0 0)"/></svg>