<?xml version="1.0" encoding="utf-8"?>
<!-- Generator: Adobe Illustrator 19.2.1, SVG Export Plug-In . SVG Version: 6.00 Build 0)  -->
<svg version="1.1" id="Layer_1" xmlns="http://www.w3.org/2000/svg" xmlns:xlink="http://www.w3.org/1999/xlink" x="0px" y="0px"
	 viewBox="0 0 2499.6 2500" style="enable-background:new 0 0 2499.6 2500;" xml:space="preserve">
<g>
	<path d="M1477.9,1006.9c0.1-166.5-250.7-141.1-330.6-141.1V1148C1227.1,1147.9,1477.9,1166.6,1477.9,1006.9z"/>
	<path d="M1147.3,1290.3v311.3c95.9,0,396.4,19.9,396.4-155.6C1543.7,1263,1243.2,1290.5,1147.3,1290.3z"/>
	<path d="M1249.7,0C559.4,0-0.2,559.6,0,1249.9c-0.1,690.3,559.5,1250,1249.5,1250c690.5-0.1,1250.1-559.7,1250.1-1249.9v0
		C2499.6,559.7,1940,0,1249.7,0z M1822.8,1473.8c-20.6,223.2-187.1,283.1-424.7,296.7v234.4h-141.3l0.1-231.3
		c-36.7,0-74.2-0.3-112.9-1.1v232.4h-141.2l-0.1-234.9c-33-0.2-66.7-0.8-100.9-0.8h-184l28.1-168.8c0,0,104.5,1.6,102.7,0
		c40-0.1,50.6-28.8,53.1-46.8l0.1-370.7h0.2v-1c-0.1,0-0.1,0-0.2,0V917.3c-5.4-28.7-24-61.9-81.3-61.9c1.8-1.9-102.6,0.1-102.6,0.1
		v-151l194.9,0.1v0.7c29.3,0,59.4-0.6,90-1.2l0.1-232.1h141.3v227.6c37.7-0.8,75.7-1.5,112.8-1.5V472h141.3v232.3
		c182.6,16,327.1,72.1,343.2,239.5l0,0c12,122.5-39.3,196-121.4,237.6C1755,1213.8,1839.5,1294.1,1822.8,1473.8z"/>
</g>
</svg>
