<?xml version="1.0" encoding="utf-8"?>
<!-- Generator: Adobe Illustrator 19.2.1, SVG Export Plug-In . SVG Version: 6.00 Build 0)  -->
<svg version="1.1" id="Layer_1" xmlns="http://www.w3.org/2000/svg" xmlns:xlink="http://www.w3.org/1999/xlink" x="0px" y="0px"
	 viewBox="0 0 254 254" style="enable-background:new 0 0 254 254;" xml:space="preserve">
<path d="M127,0C56.9,0,0,56.9,0,127s56.9,127,127,127s127-56.9,127-127S197.1,0,127,0z M106.8,180.6c-4.4,6.8-11.7,11.1-19.8,11.6
	H46.9c-8.8,0-12.4-6.1-8-13.8l79.9-140.7c4.4-7.6,11.4-7.6,15.8,0l6.1,11L155.1,74c3.5,7.2,3.5,15.7,0,22.9L106.8,180.6z
	 M207.1,192.2h-55.2c-8.7,0-12.3-6.2-8-13.8l27.9-48.1c4.4-7.6,11.5-7.6,15.9,0l27.4,48.1C219.5,186,215.9,192.2,207.1,192.2z"/>
</svg>
