<?xml version="1.0" encoding="utf-8"?>
<!-- Generator: Adobe Illustrator 19.2.1, SVG Export Plug-In . SVG Version: 6.00 Build 0)  -->
<svg version="1.1" id="Layer_1" xmlns="http://www.w3.org/2000/svg" xmlns:xlink="http://www.w3.org/1999/xlink" x="0px" y="0px"
	 viewBox="0 0 109.3 109.3" style="enable-background:new 0 0 109.3 109.3;" xml:space="preserve">
<title>wrapped-bitcoin-wbtc</title>
<g id="Layer_2">
	<g id="Layer_1-2">
		<g id="Page-1">
			<g id="wbtc_colour">
				<path id="Shape" d="M89.1,22.9l-3,3c14.8,16.2,14.8,41.1,0,57.3l3,3C105.6,68.3,105.6,40.8,89.1,22.9L89.1,22.9z"/>
				<path id="Shape-2" d="M26,23.2c16.2-14.8,41.1-14.8,57.3,0l3-3c-17.9-16.5-45.5-16.5-63.4,0L26,23.2z"/>
				<path id="Shape-3" d="M23.2,83.3C8.4,67.1,8.4,42.2,23.2,26l-3-3c-16.5,17.9-16.5,45.5,0,63.4L23.2,83.3z"/>
				<path id="Shape-4" d="M83.3,86.1c-16.2,14.8-41.1,14.8-57.3,0l-3,3c17.9,16.5,45.5,16.5,63.4,0L83.3,86.1z"/>
				<path id="Shape-5" d="M73.6,44.6c-0.6-6.3-6-8.4-12.8-9V27h-5.3v8.5c-1.4,0-2.8,0-4.2,0V27H46v8.7H35.3v5.7c0,0,3.9-0.1,3.8,0
					c1.5-0.2,2.8,0.9,3,2.3v23.8c0,0.5-0.3,1-0.6,1.3c-0.4,0.3-0.9,0.5-1.4,0.5c0.1,0.1-3.8,0-3.8,0l-1,6.3h10.6v8.8h5.3v-8.7h4.2
					v8.7h5.3v-8.7c8.9-0.5,15.1-2.7,15.9-11.1c0.6-6.7-2.5-9.7-7.6-10.9C72.1,52,74,49.2,73.6,44.6z M66.2,63.4
					c0,6.6-11.2,5.8-14.8,5.8V57.6C54.9,57.6,66.2,56.5,66.2,63.4z M63.7,47c0,6-9.4,5.3-12.4,5.3V41.7C54.3,41.7,63.7,40.8,63.7,47
					z"/>
				<path id="Shape-6" d="M54.6,109.3C24.4,109.3,0,84.8,0,54.6S24.5,0,54.6,0c30.2,0,54.6,24.5,54.6,54.6
					C109.3,84.8,84.8,109.3,54.6,109.3C54.6,109.3,54.6,109.3,54.6,109.3z M54.6,4.3C26.8,4.3,4.3,26.8,4.3,54.6
					c0,27.8,22.6,50.3,50.4,50.3c27.8,0,50.3-22.5,50.3-50.3C105,26.8,82.5,4.3,54.6,4.3C54.7,4.3,54.6,4.3,54.6,4.3z"/>
			</g>
		</g>
	</g>
</g>
</svg>
