<?xml version="1.0" encoding="utf-8"?>
<!-- Generator: Adobe Illustrator 19.2.1, SVG Export Plug-In . SVG Version: 6.00 Build 0)  -->
<svg version="1.1" id="Layer_1" xmlns="http://www.w3.org/2000/svg" xmlns:xlink="http://www.w3.org/1999/xlink" x="0px" y="0px"
	 viewBox="0 0 3756.1 3756.5" style="enable-background:new 0 0 3756.1 3756.5;" xml:space="preserve">
<path id="_149931032" d="M1878,0C841.2,0-1.1,842.1,0.2,1878c0.3,207.3,33.3,406.6,95.3,593.1h561.9V891.3L1878,2111.8L3098.6,891.3
	v1579.9h562c62.1-186.5,95-385.9,95.4-593.1C3757.7,841,2915,0.3,1878,0.3V0z"/>
<path id="_149931160" d="M1597.3,2392.4l-532.7-532.7v994.1H657.4l-384.3,0.1c329.6,540.8,925.3,902.6,1604.9,902.6
	s1275.3-361.8,1605-902.6h-791.8v-994.1l-532.7,532.7L1878,2673L1597.3,2392.4L1597.3,2392.4L1597.3,2392.4z"/>
</svg>
