<?xml version="1.0" encoding="utf-8"?>
<!-- Generator: Adobe Illustrator 19.2.1, SVG Export Plug-In . SVG Version: 6.00 Build 0)  -->
<svg version="1.1" id="Layer_1" xmlns="http://www.w3.org/2000/svg" xmlns:xlink="http://www.w3.org/1999/xlink" x="0px" y="0px"
	 viewBox="0 0 2000 2000" style="enable-background:new 0 0 2000 2000;" xml:space="preserve">
<path d="M1000,0C445.8,0,0,445.8,0,1000s445.8,1000,1000,1000s1000-445.8,1000-1000S1554.2,0,1000,0z M812.5,1691.7
	c0,8.3,0,12.5-4.2,16.7c-4.2,16.7-20.8,25-37.5,16.7c-233.3-75-412.5-254.2-487.5-487.5c-125-395.8,91.7-816.7,487.5-941.7
	c4.2-4.2,12.5-4.2,16.7-4.2c16.7,4.2,25,16.7,25,33.3v58.3c0,20.8-8.3,33.3-25,41.7c-170.8,62.5-308.3,195.8-370.8,370.8
	c-120.8,320.8,45.8,683.3,370.8,800c12.5,8.3,25,25,25,37.5V1691.7z M1066.7,1479.2c-4.2,20.8-16.7,33.3-33.3,33.3h-62.5
	c-20.8-4.2-33.3-16.7-33.3-33.3v-100c-137.5-20.8-204.2-95.8-220.8-200v-4.2c0-16.7,12.5-29.2,29.2-29.2h70.8c12.5,0,25,8.3,29.2,25
	c12.5,62.5,50,108.3,158.3,108.3c79.2,0,137.5-45.8,137.5-112.5s-37.5-91.7-154.2-112.5c-175-20.8-258.3-75-258.3-212.5
	c0-104.2,79.2-187.5,204.2-204.2v-95.8c4.2-20.8,16.7-33.3,33.3-33.3h62.5c20.8,4.2,33.3,16.7,33.3,33.3v100
	c95.8,8.3,170.8,79.2,187.5,170.8v4.2c0,16.7-12.5,29.2-29.2,29.2h-66.7c-12.5,0-25-8.3-29.2-20.8c-20.8-62.5-62.5-87.5-137.5-87.5
	c-83.3,0-125,37.5-125,95.8s25,91.7,150,108.3c175,20.8,262.5,70.8,262.5,216.7l0,0c0,112.5-83.3,200-208.3,220.8V1479.2z
	 M1229.2,1729.2c-4.2,4.2-12.5,4.2-16.7,4.2c-16.7-4.2-25-16.7-25-33.3v-58.3c0-20.8,8.3-33.3,25-41.7
	c170.8-62.5,308.3-195.8,370.8-370.8c120.8-320.8-45.8-683.3-370.8-800c-12.5-8.3-25-25-25-41.7v-58.3c0-8.3,0-12.5,4.2-16.7
	c4.2-16.7,20.8-25,37.5-16.7v0c229.2,75,412.5,254.2,487.5,491.7C1841.7,1183.3,1625,1604.2,1229.2,1729.2z"/>
</svg>
