<?xml version="1.0" encoding="utf-8"?>
<!-- Generator: Adobe Illustrator 19.2.1, SVG Export Plug-In . SVG Version: 6.00 Build 0)  -->
<svg version="1.1" id="Layer_1" xmlns="http://www.w3.org/2000/svg" xmlns:xlink="http://www.w3.org/1999/xlink" x="0px" y="0px"
	 viewBox="0 0 2000 2000" style="enable-background:new 0 0 2000 2000;" xml:space="preserve">
<g>
	<path d="M680.3,93.5c192.3-71.9,408.7-72.1,604.6-13c255,79.2,470.3,271.6,582.8,513.2c31,68.8,60.8,140.6,63.7,217.1
		c-143.4-83.1-300.5-137-458-186.1c-251.9-90.8-515.6-153.9-754-278.7c-55.5-33.2-126.3-67.2-141.4-136.3
		C571.9,150,635.1,116.6,680.3,93.5"/>
	<path d="M99.8,674.8c55.7-151.1,147-291.3,270.9-395.3c31.5,259.3,141.9,509.9,324.2,698.4c218.6,227.1,529.9,366.5,846.7,361.3
		c125.8,3.9,248.8-25.1,371.4-48.6c-120.7,436.1-598.7,725.7-1041.6,656c-267.3-34.2-514.1-192.5-663.1-415.9
		C40.3,1283.7-2,955.7,99.8,674.8z"/>
</g>
<path d="M1473.4,624.7c157.5,49.1,314.6,103,458,186.1l9.7,5.1c13.3,100,23,202,5.3,302.1c-72.1-30.5-130.5-84.2-191.6-131.7
	C1637.1,888.4,1517.1,776.4,1473.4,624.7"/>
</svg>
