<?xml version="1.0" encoding="utf-8"?>
<!-- Generator: Adobe Illustrator 19.2.1, SVG Export Plug-In . SVG Version: 6.00 Build 0)  -->
<svg version="1.1" id="Calque_1" xmlns="http://www.w3.org/2000/svg" xmlns:xlink="http://www.w3.org/1999/xlink" x="0px" y="0px"
	 viewBox="0 0 256 256" style="enable-background:new 0 0 256 256;" xml:space="preserve">
<g>
	<path d="M150.7,232.9c-57.7,0-104.5-46.7-104.5-104.4S93,24,150.7,24c24.9,0,47.8,8.7,65.8,23.3l14.8-18.1
		c-19.6-16.1-43.4-25.9-68.6-28.4s-50.5,2.6-72.8,14.5S49.3,45.5,37.4,67.8S20.5,115.4,23,140.6c3.4,33.8,20,64.8,46.2,86.3
		c26.3,21.5,60,31.7,93.7,28.4c25.2-2.4,49.1-12.3,68.6-28.4l-14.6-17.7C198.9,224,175.8,232.9,150.7,232.9z"/>
	<g>
		<path d="M168.1,136.8c0-9.8-6-13.1-17.7-14.6c-8.6-1.2-10.3-3.2-10.3-7.2s2.9-6.4,8.5-6.4c5.1,0,8,1.7,9.2,5.8
			c0.1,0.4,0.4,0.8,0.8,1.1c0.4,0.3,0.8,0.4,1.3,0.4h4.5c0.3,0,0.6-0.1,0.8-0.2c0.3-0.1,0.5-0.3,0.7-0.5s0.3-0.5,0.4-0.7
			c0.1-0.3,0.1-0.6,0-0.9c-1.4-6.4-5.8-10.2-12.6-11.4v-6.7c0-0.6-0.2-1.1-0.6-1.5c-0.4-0.4-0.9-0.6-1.5-0.6h-4.3
			c-0.6,0-1.1,0.2-1.5,0.6c-0.4,0.4-0.6,0.9-0.6,1.5v6.5c-8.5,1.2-13.9,6.7-13.9,13.8c0,9.2,5.7,12.7,17.5,14.3
			c8.1,1.3,10.4,3,10.4,7.5s-3.9,7.5-9.4,7.5c-7.4,0-9.9-3.2-10.8-7.3c-0.1-0.5-0.4-0.9-0.7-1.2c-0.4-0.3-0.9-0.5-1.3-0.5h-4.9
			c-0.3,0-0.6,0.1-0.8,0.2c-0.3,0.1-0.5,0.3-0.7,0.5s-0.3,0.5-0.4,0.7c-0.1,0.3-0.1,0.6,0,0.8c1.2,7,5.8,12.1,15.1,13.3v6.6
			c0,0.6,0.2,1.1,0.6,1.5c0.4,0.4,0.9,0.6,1.5,0.6h4.3c0.6,0,1.1-0.2,1.5-0.6c0.4-0.4,0.6-0.9,0.6-1.5v-6.6
			C162.5,150.2,168.1,144.3,168.1,136.8z"/>
		<path d="M135.8,166.8c-8.1-2.9-15.1-8.3-20.1-15.3s-7.6-15.4-7.6-23.9s2.7-16.9,7.6-23.9c5-7,12-12.4,20.1-15.3
			c0.5-0.2,1-0.6,1.3-1.1s0.5-1,0.5-1.6v-3.9c0-0.3,0-0.7-0.2-1c-0.1-0.3-0.4-0.6-0.7-0.8c-0.3-0.2-0.6-0.3-1-0.4
			c-0.4-0.1-0.7,0-1,0.2c-10.2,3.2-19.1,9.6-25.5,18.2c-6.3,8.6-9.7,18.9-9.7,29.6c0,10.6,3.4,21,9.7,29.6
			c6.3,8.6,15.2,14.9,25.5,18.2c0.3,0.1,0.7,0.2,1,0.2s0.7-0.2,1-0.4s0.5-0.5,0.7-0.8c0.1-0.3,0.2-0.7,0.2-1v-3.9
			c0-0.6-0.2-1.1-0.5-1.6S136.4,167,135.8,166.8L135.8,166.8z"/>
		<path d="M164.8,79.9c-0.3-0.1-0.7-0.2-1-0.2s-0.7,0.2-1,0.4c-0.3,0.2-0.5,0.5-0.7,0.8c-0.1,0.3-0.2,0.7-0.2,1v3.9
			c0,0.6,0.2,1.1,0.5,1.6s0.8,0.8,1.3,1.1c8.1,2.9,15.1,8.3,20.1,15.3s7.6,15.4,7.6,23.9s-2.7,16.9-7.6,23.9c-5,7-12,12.4-20.1,15.3
			c-0.5,0.2-1,0.6-1.3,1c-0.3,0.5-0.5,1-0.5,1.6v3.9c0,0.3,0,0.7,0.2,1c0.1,0.3,0.4,0.6,0.7,0.8s0.6,0.3,1,0.4c0.3,0,0.7,0,1-0.2
			c10.2-3.2,19.1-9.6,25.5-18.2c6.3-8.6,9.7-18.9,9.7-29.6c0-10.6-3.4-21-9.7-29.6C183.9,89.5,175,83.1,164.8,79.9L164.8,79.9z"/>
	</g>
</g>
</svg>
