<?xml version="1.0" encoding="utf-8"?>
<!-- Generator: Adobe Illustrator 19.2.1, SVG Export Plug-In . SVG Version: 6.00 Build 0)  -->
<svg version="1.1" id="Layer_1" xmlns="http://www.w3.org/2000/svg" xmlns:xlink="http://www.w3.org/1999/xlink" x="0px" y="0px"
	 viewBox="0 0 32 32" style="enable-background:new 0 0 32 32;" xml:space="preserve">
<g>
	<path d="M25.9,9.9c-0.4-3.3-3.2-4.2-6.7-4.5L19.1,1L16.4,1l0.1,4.3c-0.6,0-1.4,0.1-2.2,0l-0.1-4.5L11.5,1l0.1,4.5
		c-0.6,0-1.1,0-1.7,0l0,0L6.1,5.7l0,2.9c0,0,2.1-0.1,1.9-0.1c1.1,0,1.4,0.5,1.6,1.2l0.1,5.1c0,0,0.1,0,0.3,0.1l-0.3,0.1l0.1,7.2
		c-0.1,0.3-0.2,0.9-1.1,1l-1.9,0.1l-0.5,3.2l3.5,0c0.6,0,1.3,0,1.9,0l0.1,4.5l2.7-0.1l-0.1-4.5c0.8,0,1.4,0.1,2.2,0l0.1,4.5l2.7-0.1
		l-0.1-4.5c4.5-0.4,7.7-1.6,8.1-5.9c0.3-3.4-1.4-5-4.1-5.5C25.2,13.7,26.2,12.4,25.9,9.9L25.9,9.9z M22.3,19.7
		c0.1,3.3-5.7,3.1-7.7,3.2l-0.1-6.1C16.4,16.9,22.1,16.2,22.3,19.7L22.3,19.7z M20.8,11.2c0.1,3-4.7,2.9-6.3,2.9l-0.1-5.4
		C15.9,8.7,20.8,8.1,20.8,11.2L20.8,11.2z"/>
</g>
</svg>
