<?xml version="1.0" encoding="utf-8"?>
<!-- Generator: Adobe Illustrator 19.2.1, SVG Export Plug-In . SVG Version: 6.00 Build 0)  -->
<svg version="1.1" id="Calque_1" xmlns="http://www.w3.org/2000/svg" xmlns:xlink="http://www.w3.org/1999/xlink" x="0px" y="0px"
	 viewBox="0 0 64 64" style="enable-background:new 0 0 64 64;" xml:space="preserve">
<path d="M61.5,19.3c-3-2.8-7.2-7-10.5-10l-0.2-0.1c-0.3-0.3-0.7-0.5-1.1-0.6l0,0C41.6,7,3.6-0.1,2.9,0C2.7,0,2.5,0.1,2.3,0.2
	L2.1,0.4C1.9,0.6,1.7,0.9,1.6,1.2v0.1V2v0.1c4.2,12,21.1,50.9,24.4,60c0.2,0.6,0.6,1.8,1.3,1.9h0.2c0.4,0,2-2.1,2-2.1
	s29-35.1,31.9-38.9c0.4-0.5,0.7-1,1-1.5C62.5,20.7,62.2,19.8,61.5,19.3z M36.9,23.4l12.4-10.3l7.3,6.7L36.9,23.4z M32.1,22.7
	L10.8,5.3l34.4,6.4L32.1,22.7z M34,27.3l21.8-3.5l-24.9,30L34,27.3z M7.9,7l22.4,19l-3.2,27.8L7.9,7z"/>
</svg>
