<svg xmlns="http://www.w3.org/2000/svg" viewBox="0 0 250 250"><defs><style>.a{fill:#231f20;}</style></defs><title>ax-icon</title><path class="a" d="M96.2,96a31.5,31.5,0,0,0-16.5-4.4A31.9,31.9,0,0,0,63.2,96a31.6,31.6,0,0,0-11.7,12,36.4,36.4,0,0,0,0,34.1A31,31,0,0,0,63.2,154a32.4,32.4,0,0,0,16.6,4.3A32,32,0,0,0,96.2,154a31.2,31.2,0,0,0,11.6-11.9,36.4,36.4,0,0,0,0-34.1A31.8,31.8,0,0,0,96.2,96Z" transform="translate(0 0)"/><path class="a" d="M125,0A125,125,0,1,0,250,125,125,125,0,0,0,125,0Zm-0.8,162.7a5.9,5.9,0,0,1-1.8,4.3,6.1,6.1,0,0,1-4.5,1.8,6.2,6.2,0,0,1-4.5-1.7,5.8,5.8,0,0,1-1.8-4.4v-9.6a39.6,39.6,0,0,1-14.2,12.1,41.3,41.3,0,0,1-19,4.4,42.1,42.1,0,0,1-37.5-21.8,45.6,45.6,0,0,1-5.7-22.6,45,45,0,0,1,5.8-22.7,42.5,42.5,0,0,1,16-16.1,44.6,44.6,0,0,1,22.6-5.8,44.6,44.6,0,0,1,22.6,5.8,42.5,42.5,0,0,1,16,16.1,45.1,45.1,0,0,1,5.8,22.7v37.6Zm88.9,4.6a5.5,5.5,0,0,1-3.8,1.5,7.1,7.1,0,0,1-3.2-.6,6.7,6.7,0,0,1-2.4-2.2l-26.2-33.4-27.2,34.4a5.1,5.1,0,0,1-4.3,1.9,5.3,5.3,0,0,1-5.6-5.4A6.2,6.2,0,0,1,142,159l27.7-34.6L143.4,91.2a6.2,6.2,0,0,1-1.6-4.3,5.8,5.8,0,0,1,1.4-4,5.3,5.3,0,0,1,4.2-1.6,6.3,6.3,0,0,1,4.6,1.9l25.8,33.1,25.4-32.2a6.6,6.6,0,0,1,5.3-2.9,5.3,5.3,0,0,1,5.6,5.4,7.4,7.4,0,0,1-1.8,4.6l-26.6,33L213,159.2a7.1,7.1,0,0,1,1.8,4.3A4.9,4.9,0,0,1,213.1,167.2Z" transform="translate(0 0)"/></svg>