<?xml version="1.0" encoding="utf-8"?>
<!-- Generator: Adobe Illustrator 19.2.1, SVG Export Plug-In . SVG Version: 6.00 Build 0)  -->
<svg version="1.1" id="Calque_1" xmlns="http://www.w3.org/2000/svg" xmlns:xlink="http://www.w3.org/1999/xlink" x="0px" y="0px"
	 viewBox="0 0 30 30" style="enable-background:new 0 0 30 30;" xml:space="preserve">
<path d="M17.8,15.7c0-0.2,0-0.3-0.2-0.4c-0.7-0.5-1.5-1-2.2-1.5c-0.2-0.1-0.3-0.1-0.5,0l-2.2,1.6c-0.2,0.1-0.3,0.3-0.3,0.5
	s-0.1,0.4-0.2,0.6c-0.1,0.2-0.1,0.3,0,0.5c0.8,1.6,1.5,3.2,2.3,4.8c0.3,0.5,0.5,1.1,0.8,1.7c0.1-0.1,0.1-0.2,0.2-0.3
	c0.9-2,1.7-4,2.6-6c0.1-0.2,0.1-0.3-0.1-0.4C17.8,16.5,17.7,16.1,17.8,15.7z"/>
<path d="M14.4,13.1c-2-1.4-4-2.8-5.9-4.1L8.4,9.1c0.1,0.2,0.1,0.3,0.2,0.5l2.1,4.5c0.2,0.4,0.3,0.8,0.9,0.9c0.2,0,0.3,0,0.5-0.1
	c0.6-0.5,1.3-0.9,1.9-1.4L14.4,13.1z"/>
<path d="M15,0C6.7,0,0,6.7,0,15s6.7,15,15,15s15-6.7,15-15S23.3,0,15,0z M23.1,8.7c-0.2,0-0.3,0.1-0.4,0.3c-0.8,2-1.7,4-2.5,6v0.4
	c0.3,0.6,0,1.4-0.6,1.7c-0.1,0-0.1,0.1-0.2,0.1s-0.2,0.1-0.3,0.3c-0.9,2-1.8,4.1-2.6,6.1c-0.1,0.2-0.1,0.3,0,0.5
	c0.4,0.5,0.3,1.3-0.2,1.7c-0.4,0.4-1.1,0.5-1.6,0.1s-0.7-1.1-0.3-1.6l0,0c0.1-0.2,0.1-0.4,0-0.6c-1-2-1.9-4-2.9-6
	c-0.1-0.2-0.3-0.4-0.5-0.4c-0.7-0.1-1.2-0.8-1.1-1.5c0-0.2,0.1-0.3,0.2-0.4c0.1-0.2,0.1-0.3,0-0.5C9.2,12.9,8.3,11,7.3,9
	c0-0.1-0.1-0.2-0.4-0.2C6.3,8.7,5.8,8.2,5.8,7.6s0.4-1.1,0.9-1.3c0.6-0.2,1.2,0,1.5,0.5C8.3,7,8.4,7,8.7,7h12.7c0.2,0,0.4,0,0.5-0.3
	c0.3-0.5,0.9-0.7,1.4-0.5s0.9,0.7,0.9,1.2C24.2,8,23.7,8.6,23.1,8.7z"/>
<path d="M15,12.4c0.2,0.1,0.3,0.1,0.5,0c1.9-1.4,3.8-2.7,5.6-4.1c0.1-0.1,0.2-0.1,0.2-0.2V8H8.7C8.8,8,8.9,8.1,9,8.2L15,12.4z"/>
<path d="M16,13.1c0.8,0.6,1.6,1.1,2.4,1.6c0.2,0.1,0.5,0,0.8,0c0.1,0,0.2-0.2,0.2-0.3c0.7-1.6,1.4-3.3,2.1-4.9
	c0-0.1,0.1-0.2,0.1-0.3h-0.1C19.8,10.4,17.9,11.7,16,13.1z"/>
</svg>
