<?xml version="1.0" encoding="utf-8"?>
<!-- Generator: Adobe Illustrator 19.2.1, SVG Export Plug-In . SVG Version: 6.00 Build 0)  -->
<svg version="1.1" id="Layer_1" xmlns="http://www.w3.org/2000/svg" xmlns:xlink="http://www.w3.org/1999/xlink" x="0px" y="0px"
	 viewBox="0 0 2499.5 2419.9" style="enable-background:new 0 0 2499.5 2419.9;" xml:space="preserve">
<path d="M1817.8,280.7c76.3,0,138.3-63,138.3-140.4S1894.1,0,1817.8,0c-76.3,0.4-138.3,63.3-138.3,140.7S1741.5,280.7,1817.8,280.7z
	 M1858.6,645.5c65.2-0.5,117.6-53.7,117.1-118.9l0,0c0-65.4-52.4-118.9-117.1-118.9s-117.1,53.1-117.1,118.9
	S1793.8,645.5,1858.6,645.5z M2180.1,692c64.4,0,116.8-53.1,116.8-118.6s-52.4-118.6-116.8-118.6s-116.8,53.1-116.8,118.6
	S2115.8,692,2180.1,692z M2141.5,1004.1c55.2,0,99.9-45.4,99.9-101.3s-44.7-101.3-99.9-101.3s-99.9,45.4-99.9,101.3
	S2086.3,1004.1,2141.5,1004.1z M2398.9,1105.3c55.6,0,100.6-45.7,100.6-102s-45-102-100.6-102c-55.9,0.4-101,46-100.6,102
	c0,0,0,0,0,0l0,0C2298.3,1059.6,2343.4,1105.3,2398.9,1105.3z M1818,961.9c56.9-0.3,102.7-46.7,102.4-103.6c0,0,0,0,0,0l0,0v-0.2
	c0-57.3-45.7-103.8-102.4-103.8s-102.4,46.4-102.4,103.8C1715.6,915.1,1761.4,961.9,1818,961.9z M1725.2,1210.2
	c47.5,0,85.8-39,85.8-86.9c0.4-47.6-37.9-86.5-85.5-86.9h-0.3c-47.5,0-85.8,39-85.8,86.9S1677.7,1210.2,1725.2,1210.2z
	 M2047.2,1254.1c47.3-0.3,85.4-39,85.1-86.3c0,0,0,0,0,0l0,0v-0.2c0-47.8-38-86.5-85.1-86.5s-85.1,38.7-85.1,86.5
	c-0.6,47.2,37.1,85.9,84.3,86.5c0,0,0,0,0,0H2047.2L2047.2,1254.1z M2303.9,1354.9c47.5,0,85.8-39,85.8-87.2s-38.3-87.2-85.8-87.2
	s-85.8,39-85.8,87.2c-0.5,47.7,37.7,86.7,85.4,87.2H2303.9z M2177.1,1543.3c40.1,0,72.5-33.1,72.5-73.5s-32.4-73.5-72.5-73.5
	s-72.5,33.1-72.5,73.5S2137,1543.3,2177.1,1543.3z M1919.2,1444.1c40.8,0,74.2-33.8,74.2-75.3s-33.1-75.3-74.2-75.3
	s-74.2,33.8-74.2,75.3S1878.4,1444.1,1919.2,1444.1z M1597.6,1398.1c41.2-0.6,74.1-34.6,73.4-75.8c-0.6-40.2-33.1-72.7-73.3-73.4
	h-0.1c-41.2,0.6-74.1,34.6-73.4,75.8C1524.8,1364.9,1557.3,1397.4,1597.6,1398.1L1597.6,1398.1z M1776.4,1575.1
	c35.5,0,64-29.2,64-64.7c0.3-35.4-28.1-64.4-63.5-64.7h-0.5c-35.5,0-64,29.2-64,64.7c-0.4,35.3,27.9,64.3,63.3,64.7H1776.4z
	 M2034.2,1676c35.5,0,64.7-29.2,64.7-65.4s-28.8-65.4-64.7-65.4c-36.1,0-65.4,29.3-65.4,65.4S1998.1,1676,2034.2,1676z M1889,1751.7
	c28.1,0,51-23.2,51-51.7c0.2-28.3-22.7-51.5-51-51.7c-28.1,0-51,23.2-51,51.7C1837.9,1728.3,1860.7,1751.4,1889,1751.7z
	 M1751.4,1792.3c25.6-0.2,46.3-21.1,46.1-46.7c0,0,0,0,0,0v-0.1c0-26-20.8-46.8-46.1-46.8c-25.6,0.2-46.3,21.1-46.1,46.7
	c0,0,0,0,0,0v0.1c-0.4,25.4,19.8,46.3,45.2,46.8L1751.4,1792.3z M1630.9,1657.7c30.3,0,54.9-25,54.9-55.6s-24.6-55.6-54.9-55.6
	s-54.9,25-54.9,55.6C1575.9,1632.6,1600.4,1657.4,1630.9,1657.7z M1454.1,1530.2c35.2,0,64-28.8,64-64.7s-28.5-64.7-64-64.7
	c-35.2,0-64,28.8-64,64.7C1390,1501,1418.6,1529.9,1454.1,1530.2z M1978.4,2340.8c76,0,137.6-62.6,137.6-139.7
	s-61.6-139.7-137.6-139.7s-137.6,62.6-137.6,139.7S1902.4,2340.8,1978.4,2340.8L1978.4,2340.8z M1628.9,2164
	c63.3,0,114.7-52.1,114.7-116.4s-51.4-116.4-114.7-116.4s-114.7,52.1-114.7,116.4C1514.2,2111.9,1565.5,2164,1628.9,2164z
	 M1429.2,2419.9c64,0,115.7-52.4,115.7-117.5c0-64.7-51.7-117.5-115.7-117.5s-115.7,52.4-115.7,117.5
	C1313,2366.8,1364.8,2419.4,1429.2,2419.9L1429.2,2419.9z M1369.1,1948.4c55.8-0.4,100.7-45.9,100.3-101.7c0,0,0,0,0,0l0,0
	c0.4-55.8-44.5-101.3-100.3-101.7c0,0,0,0,0,0l0,0c-55.8,0.4-100.7,45.9-100.3,101.7c0,0,0,0,0,0l0,0
	C1268.9,1902.7,1313.9,1948.4,1369.1,1948.4L1369.1,1948.4z M1169.9,2207.8c55.2,0,99.9-45.4,99.9-101.3s-44.7-101.3-99.9-101.3
	s-99.9,45.4-99.9,101.3c-0.5,55.4,43.9,100.7,99.3,101.3H1169.9z M955.2,2383.8c55.2,0,99.6-45.4,99.6-101c0-55.9-44.7-101-99.6-101
	c-55.2,0-99.6,45.4-99.6,101S900.3,2383.8,955.2,2383.8L955.2,2383.8z M776.5,2154.7c47.2-0.4,85.3-39,85.1-86.2
	c0-47.5-38-86.2-85.1-86.2c-47.6,0.7-85.6,39.9-84.9,87.5C692.3,2116.4,729.9,2154,776.5,2154.7z M991.6,1977.9
	c47.3-0.3,85.4-38.9,85.1-86.2c0-47.8-38-86.2-85.1-86.2c-47.6,0.6-85.7,39.7-85,87.4c0.6,46.6,38.2,84.3,84.7,85L991.6,1977.9z
	 M1192.3,1718.6c47.3-0.3,85.4-39,85.1-86.3c0,0,0,0,0,0l0,0v-0.2c0-47.8-38-86.5-85.1-86.5c-47.3,0.3-85.4,39-85.1,86.3
	c0,0,0,0,0,0l0,0v0.2C1107.2,1679.9,1145.2,1718.6,1192.3,1718.6z M885.3,1754.3c40.8,0,73.9-33.4,73.9-74.9s-33.1-74.9-73.9-74.9
	s-73.9,33.4-73.9,74.9S844.5,1754.3,885.3,1754.3z M671.3,1930.4c40.6-0.2,73.4-33.4,73.2-74c0,0,0,0,0,0l0,0v-0.2
	c0.4-40.6-32.2-73.8-72.8-74.2h-0.4c-40.6,0.2-73.4,33.4-73.2,74c0,0,0,0,0,0l0,0v0.2C597.8,1896.9,630.6,1930.1,671.3,1930.4
	C671.3,1930.4,671.3,1930.4,671.3,1930.4L671.3,1930.4z M622.1,1724c35.1-0.3,63.4-28.9,63.3-64c0-35.5-28.5-64-63.3-64
	s-63.3,28.8-63.3,64C558.8,1695.5,587.3,1724,622.1,1724z M620.3,1542.9c30.2-0.3,54.5-25,54.2-55.2c0,0,0,0,0,0l0,0
	c0-30.3-24.3-55.2-54.2-55.2s-54.2,24.6-54.2,55.2S590.4,1542.9,620.3,1542.9z M650.1,1392.3c25.7,0,46.1-21.1,46.1-46.8
	s-20.8-46.8-46.1-46.8c-25.7,0-46.1,21.1-46.1,46.8S624.4,1392.3,650.1,1392.3z M834.6,1367.1c30.3,0,54.9-25,54.9-55.6
	s-24.6-55.6-54.9-55.6s-54.9,25-54.9,55.6C779.6,1342,804.1,1366.8,834.6,1367.1z M1037.1,1288.2c35.2,0,64-29.2,64-64.7
	c0.3-35.4-28.1-64.4-63.5-64.7h-0.5c-35.2,0-64,29.2-64,64.7c-0.3,35.5,28.2,64.4,63.7,64.7c0,0,0,0,0,0H1037.1z M1085.3,1493.6
	c40.1-0.1,72.6-32.7,72.5-72.8c-0.1-40.1-32.7-72.6-72.8-72.5s-72.6,32.7-72.5,72.8c0.1,40,32.5,72.4,72.5,72.5H1085.3z
	 M837.2,1548.3c35.2,0,63.3-28.8,63.3-64.4s-28.5-64.4-63.3-64.4c-35.2,0.2-63.5,28.9-63.3,64.1c0,0,0,0,0,0v0.3
	c-0.5,35.1,27.5,63.9,62.6,64.4c0,0,0,0,0,0L837.2,1548.3L837.2,1548.3z M137.2,1452.8c75.6,0,137.2-62.3,137.2-139
	s-61.6-139-137.2-139S0,1237.2,0,1313.9S61.6,1452.8,137.2,1452.8L137.2,1452.8z M448.6,1204.6c65.1,0,117.5-53.5,117.5-119.3
	S513.3,966,448.6,966c-65.3,0.4-117.9,53.8-117.5,119.1v0.2C331.1,1151.5,383.9,1204.6,448.6,1204.6L448.6,1204.6z M327.1,898.6
	c64.7,0,116.8-53.1,116.8-118.6s-52.4-118.6-116.8-118.6c-64.9,0.4-117.2,53.4-116.8,118.4c0,0,0,0,0,0v0.2
	c-0.7,64.8,51.4,117.9,116.2,118.6L327.1,898.6z M627.3,753.6c55.2,0,100.3-45.4,100.3-101.7s-45-101.7-100.3-101.7
	S527,595.6,527,651.9S572.1,753.6,627.3,753.6L627.3,753.6z M750,1058.9c55.6,0,100.6-45.7,100.6-102s-45-102-100.6-102
	s-100.6,45.7-100.6,102S694.4,1058.9,750,1058.9z M1023.2,995.5c47.6-0.4,85.9-39.3,85.5-86.9l0,0c0.7-47.2-37-86.1-84.2-86.8
	c-47.2-0.7-86.1,37-86.8,84.2c0,0.9,0,1.8,0,2.6l0,0c-0.5,47.4,37.5,86.3,84.9,86.9L1023.2,995.5z M1259.2,996.3
	c40.8,0,73.9-33.4,73.9-74.6s-33.1-74.6-73.9-74.6c-41.2,0-74.6,33.4-74.6,74.6C1184.6,962.9,1218,996.3,1259.2,996.3L1259.2,996.3z
	 M1454.2,1041.2c34.1,0,62.3-28.1,62.3-63s-27.8-63-62.3-63c-34.6,0.3-62.4,28.4-62.3,63C1392.3,1012.7,1420,1041.2,1454.2,1041.2z
	 M1479.6,811.4c30.1-0.2,54.4-24.8,54.2-54.9c0-30.3-24.3-54.9-54.2-54.9s-54.2,24.6-54.2,54.9
	C1425.2,786.6,1449.5,811.2,1479.6,811.4z M1329.6,736.2c34.5-0.1,62.4-28.1,62.3-62.6c-0.1-34.5-28.1-62.4-62.6-62.3
	s-62.4,28.1-62.3,62.6c0.1,34.4,27.9,62.2,62.3,62.3H1329.6z M1136.9,690.6c40.7-0.3,73.4-33.5,73.2-74.2
	c0-41.2-32.7-74.2-73.2-74.2s-73.2,33.4-73.2,74.2c-0.3,40.6,32.3,73.9,73,74.2c0,0,0,0,0,0H1136.9z M901.3,690.9
	c47.5,0,85.8-39,85.8-86.9s-38.3-86.9-85.8-86.9s-85.8,39-85.8,86.9C815.3,651.6,853.7,690.5,901.3,690.9z M584,473.6
	c53.8,0,97.1-44,97.1-98.5s-43.6-98.5-97.1-98.5c-53.8,0-97.1,44-97.1,98.5S530.5,473.6,584,473.6z M857.1,413.9
	c47.5,0,85.8-39,85.8-86.9s-38.3-86.9-85.8-86.9s-85.8,39-85.8,86.9S809.6,413.9,857.1,413.9z M1093,415c40.8,0,73.9-33.4,73.9-74.9
	s-33.1-74.9-73.9-74.9c-41,0.2-74.1,33.7-73.9,74.7c0,0,0,0,0,0l0,0v0.2C1018.9,381.1,1052,414.6,1093,415z M1286.6,459.6
	c34.5,0,62.3-28.1,62.3-63s-27.8-63-62.3-63c-34.8,0-63,28.2-63,63S1251.8,459.6,1286.6,459.6z M1435.3,536.8
	c30.9-0.2,55.8-25.4,55.6-56.3c0-31.3-25-56.3-55.6-56.3s-55.6,25.3-55.6,56.3S1404.7,536.8,1435.3,536.8z M1544.4,625.4
	c25.4-0.2,45.9-20.9,45.7-46.3c0,0,0,0,0,0l0,0V579c0.2-25.4-20.2-46.2-45.6-46.4c0,0,0,0,0,0h-0.1c-25.4,0.2-45.9,20.9-45.7,46.3
	c0,0,0,0,0,0l0,0v0.1c-0.4,25.2,19.7,46,45,46.4c0,0,0,0,0,0L1544.4,625.4L1544.4,625.4z"/>
</svg>
