<?xml version="1.0" encoding="utf-8"?>
<!-- Generator: Adobe Illustrator 19.2.1, SVG Export Plug-In . SVG Version: 6.00 Build 0)  -->
<svg version="1.1" id="Layer_1" xmlns="http://www.w3.org/2000/svg" xmlns:xlink="http://www.w3.org/1999/xlink" x="0px" y="0px"
	 viewBox="0 0 2500 2500" style="enable-background:new 0 0 2500 2500;" xml:space="preserve">
<style type="text/css">
	.st0{fill:#141414;}
</style>
<path class="st0" d="M1063.9,1425.2c5.2,151,16.3,318.1,38.7,462.8c39.2,2.3,70.3,35.9,70.3,77.1c0,30.3-16.9,56.5-41.4,69.1
	c4.3,17.1,8.9,33.6,13.8,49.2c0,0,31.1,133.8,93.2,205.8c0,0,15.5,15.5,30.9-5.1c0,0,72.5-61.8,124.2-355c0,0,22.4-128.5,39.3-303.5
	c-97.3-47.2-199.2-101.2-302.8-161.3C1107.7,1451.2,1085.7,1438.2,1063.9,1425.2z"/>
<path class="st0" d="M1449.1,1084.5c-5.1-147.7-25.4-419.9-101.9-703.9c0,0-38.5-136-84.4-168.5c-7.6-5.4-18-4.6-24.7,2
	c-29.7,29.4-113.5,155.6-165.9,665.3c97.4,47.2,199.5,101.3,303.2,161.5C1400.3,1055.4,1424.9,1069.9,1449.1,1084.5z"/>
<path class="st0" d="M841.2,1282.8c-140.8,94.6-276.5,197.3-362.7,290c0,0-100.4,93.5-132,183.2c0,0-5.8,21.2,19.9,24.4
	c0,0,89.6,32.2,369.8-68.8c0,0,123.4-44.8,284.3-117.5c-4.8-64.7-8.2-132.1-10.2-201.6C951.3,1356,894.8,1319.3,841.2,1282.8z"/>
<path class="st0" d="M1668.2,1225.1c116.3-82.6,255.6-192.5,387.7-324.4c0,0,99.1-101,104.2-157c1-9.4-4.9-18.1-14-20.6
	c-27-7.5-104.5-14.5-295.1,45.4c-5.7,36.8-36.5,64.9-73.7,64.9c-20.1,0-38.3-8.2-51.8-21.6c-69.1,25.8-148.9,58.3-240.8,99.2
	c4.8,64.7,8.2,132.1,10.2,201.5C1555.5,1149.9,1613.4,1187.6,1668.2,1225.1z"/>
<path class="st0" d="M1250,0C559.6,0,0,559.6,0,1250s559.6,1250,1250,1250s1250-559.6,1250-1250S1940.4,0,1250,0z M2198.4,1800.4
	c-52.1,90-346.9,21.7-718-152.3c-35.4,408.2-124.1,697.6-227.8,697.6c-65.7,0-125.4-116.1-169.3-305.1c-34-7.2-59.6-38.3-59.6-75.6
	c0-26.4,12.8-49.6,32.3-63.6c-12.8-77.8-23.4-163.5-31.4-255.2c-372.6,172.9-668.5,240.4-720.2,150.3c-51.7-90,155-311,491.6-545
	c-78.9-55.3-150.6-109.9-213.4-162.2c-9.1,4.1-19.1,6.3-29.6,6.3c-41.2,0-74.6-34.6-74.6-77.2c0-6.6,0.8-13,2.3-19.1
	C342.7,868.8,274.3,761,306.8,704.7c52-89.9,347.1-21.7,718,152.1c35.4-408.1,124.1-697.3,227.8-697.3
	c103.9,0,192.6,290.2,228,699.3c78.1-36.2,152.8-67.9,222.6-94.3c-0.3-2.7-0.4-5.5-0.4-8.3c0-42.6,33.4-77.2,74.6-77.2
	c27.2,0,51.1,15.1,64.1,37.7c191.3-58.8,326-66.2,359.3-8.1c51.6,90-155,311-491.5,544.9C2044.5,1488.8,2250.5,1710.6,2198.4,1800.4
	z"/>
<path class="st0" d="M2158.2,1760.4c-11.3-42.9-86.5-194-576.8-537.1c0,0-636.8-399-994-480.3c0,0-131.2-40.2-224.7-22.6
	c0,0-21.1,5.7-11.1,29.4v0.3c0,0,12.4,67.8,156.9,206.5c12.4-9.6,27.8-15.3,44.5-15.3c41.2,0,74.6,34.6,74.6,77.2
	c0,12.8-3,24.9-8.4,35.6c75.2,61.1,326.7,259.8,580.6,396.7c0,0,337.5,207.3,759.6,320.5c0,0,137,34.9,188.1,11.5
	C2156,1779,2160.6,1769.5,2158.2,1760.4z M1250,1378.6c-71,0-128.6-57.6-128.6-128.6s57.6-128.6,128.6-128.6s128.6,57.6,128.6,128.6
	S1321,1378.6,1250,1378.6z"/>
</svg>
