<?xml version="1.0" encoding="utf-8"?>
<!-- Generator: Adobe Illustrator 19.2.1, SVG Export Plug-In . SVG Version: 6.00 Build 0)  -->
<svg version="1.1" id="Layer_1" xmlns="http://www.w3.org/2000/svg" xmlns:xlink="http://www.w3.org/1999/xlink" x="0px" y="0px"
	 viewBox="0 0 236.4 200" style="enable-background:new 0 0 236.4 200;" xml:space="preserve">
<path d="M203,26.2l-28.5,14.5l-137.4,70c-0.5-3.5-0.7-7.1-0.7-10.7c0.1-45.2,36.8-81.8,82-81.8c13.9,0,27.6,3.6,39.8,10.4l16.3-8.3
	l2.4-1.2C132.2-13.4,69.7-3.4,37.3,41.2C24.9,58.3,18.2,78.9,18.2,100c0,2.5,0.1,5.1,0.3,7.6c0.6,7.3-3.3,14.2-9.9,17.6L0,129.6V150
	l25.3-12.9l0,0l8.2-4.2l8.1-4.1l0,0L186.4,55l16.3-8.3l33.6-17.1V9.1L203,26.2z"/>
<path d="M236.4,50L49.8,145l-16.3,8.3L0,170.4v20.4l33.3-16.9l28.5-14.5l137.6-70.1c0.5,3.6,0.7,7.2,0.7,10.8
	c0,45.2-36.7,81.8-81.9,81.8c-14,0-27.8-3.6-40-10.5l-1,0.5l-17.7,9c44.7,32.4,107.2,22.5,139.7-22.2c12.4-17.1,19.1-37.6,19.1-58.7
	c0-2.6-0.1-5.1-0.3-7.7c-0.6-7.3,3.3-14.2,9.9-17.6l8.6-4.4V50z"/>
</svg>
