<?xml version="1.0" encoding="utf-8"?>
<!-- Generator: Adobe Illustrator 19.2.1, SVG Export Plug-In . SVG Version: 6.00 Build 0)  -->
<svg version="1.1" id="Layer_1" xmlns="http://www.w3.org/2000/svg" xmlns:xlink="http://www.w3.org/1999/xlink" x="0px" y="0px"
	 viewBox="0 0 2000 2000" style="enable-background:new 0 0 2000 2000;" xml:space="preserve">
<style type="text/css">
	.st0{fill:#070A0E;}
</style>
<path class="st0" d="M1000,0C447.7,0,0,447.7,0,1000s447.7,1000,1000,1000s1000-447.7,1000-1000S1552.3,0,1000,0z M1075.3,1549.9
	c0.1,27.8-22.4,50.4-50.2,50.4c-9.3,0-18.5-2.6-26.4-7.4l-421-257.6c-29.9-18.3-48.2-50.8-48.2-85.8v-195.4
	c0-23.2,18.9-42,42.1-41.9c7.4,0,14.7,2,21.1,5.7l440.9,257.1c25.8,15,41.7,42.6,41.7,72.5V1549.9z M1276.6,1447.7
	c0,12.1-6.5,23.3-17.1,29.2l-96.5,54.3c-1.2,0.7-2.5,1.2-3.9,1.6v-228.1c0-29.5-15.5-56.9-40.9-72.1L731,1001V743.5
	c0-23.2,18.9-42,42.1-41.9c7.4,0,14.7,2,21.1,5.7l440.7,257.1c25.8,15,41.6,42.7,41.7,72.5V1447.7z M1469.7,1333.6
	c-0.1,12.3-6.9,23.6-17.7,29.5l-91.5,49.4V994.8c0-29.5-15.5-56.8-40.7-72L924,685.4V441.2c0-7.4,2-14.7,5.6-21.1
	c11.7-20,37.4-26.8,57.4-15.2L1427.9,661c25.9,15,41.8,42.7,41.8,72.6V1333.6z"/>
</svg>
