<svg xmlns="http://www.w3.org/2000/svg" viewBox="0 0 300 300"><defs><style>.a{fill:#6c2a80;}.b{fill:#bf99c7;}.c{fill:#864697;}.d{fill:#7e2e91;}.e{fill:#e1c0dc;}</style></defs><title>swapr-logo</title><polygon class="a" points="25.8 141.5 87.2 203.7 150.3 141.8 25.8 141.5"/><polygon class="b" points="149.7 141.7 211.1 203.8 274.2 141.9 149.7 141.7"/><polygon class="c" points="211.2 203.8 149.8 141.7 86.7 203.6 211.2 203.8"/><polygon class="d" points="150.1 90 150.1 141.8 98.5 141.8 150.1 90"/><polygon class="e" points="150.1 90.1 150.1 141.9 200.3 141.9 150.1 90.1"/><path class="d" d="M288.2,91.6A150.5,150.5,0,1,0,300,150,149.5,149.5,0,0,0,288.2,91.6Zm7.2,58.4c0,80.2-65.2,145.4-145.4,145.4S4.6,230.2,4.6,150,69.8,4.6,150,4.6,295.4,69.8,295.4,150Z" transform="translate(0 0)"/></svg>