<?xml version="1.0" encoding="utf-8"?>
<!-- Generator: Adobe Illustrator 19.2.1, SVG Export Plug-In . SVG Version: 6.00 Build 0)  -->
<svg version="1.1" id="Layer_1" xmlns="http://www.w3.org/2000/svg" xmlns:xlink="http://www.w3.org/1999/xlink" x="0px" y="0px"
	 viewBox="0 0 2000 1888" style="enable-background:new 0 0 2000 1888;" xml:space="preserve">
<style type="text/css">
	.st0{opacity:0.1;fill:#FFFFFF;enable-background:new    ;}
	.st1{fill:#33A3FF;}
</style>
<g id="Layer_2">
	<g id="Layer_1-2">
		<path class="st0" d="M859.8,1803L376.4,23.9C369.4,9,353.5,1,340.6,1H43.2C10.4,1-8.5,33.8,4.4,61.7L859.8,1803z"/>
		<path class="st0" d="M1001.1,1287.8L4.4,60.7C-7.5,31.9,10.4,3,38.2,0h301.4c16.9,1,29.8,11.9,35.8,22.9L1001.1,1287.8z"/>
	</g>
</g>
<path class="st1" d="M859.8,1803L4.4,60.7C-9.5,32.9,11.4,0,42.2,0h296.4c15.9,0,30.8,9,37.8,22.9l624.7,1264
	c55.7,113.4,216.8,113.4,272.5,0l622.7-1263c7-13.9,21.9-22.9,37.8-22.9h36.8c21.9,0,35.8,22.9,25.9,41.8L1132.4,1803
	C1076.7,1916.3,915.5,1916.3,859.8,1803L859.8,1803z"/>
</svg>
