<svg xmlns="http://www.w3.org/2000/svg" viewBox="0 0 225 225"><defs><style>.a{fill:#1b6ced;}</style></defs><title>xbtc-1</title><path class="a" d="M97,225c-5.3-1.4-10.7-2.7-16-4.2-24.5-7.3-44.5-21.3-59.5-42a4.6,4.6,0,0,1-.3-4.2c13-19.7,26.1-39.3,39.3-58.9a12.1,12.1,0,0,1,1.6-1.4c5.1,7.7,10.2,15.2,15.1,23,0.5,0.8-.5,2.7-1.2,3.9-7,10.9-14.1,21.7-21.4,32.4-2.1,3-1.7,4.8,1,7,34,27.7,79.9,28,113.7-.1,18.3-15.1,28.6-35,31-58.8,2.7-27.6-6-51.3-25-70.8-15.6-16-34.9-24.8-57.6-26.1S73.9,30.8,55.3,45.2L144,178.7H133.9c-6,.1-12,0.2-18,0.6a6.9,6.9,0,0,1-7-3.5Q71.1,117.7,33,59.8c-2.7-4.2-5.4-8.4-8.3-12.4-1.5-2.1-1.4-3.5.4-5.5C44.4,18.9,68.6,4.8,98.6,1.2A8.5,8.5,0,0,0,101,0h23a16.4,16.4,0,0,0,3.4,1.2A107,107,0,0,1,185,26.5c19.8,16.8,32.9,38.1,38,63.9,0.3,1.3,1.4,2.4,2.1,3.7v38a17.3,17.3,0,0,0-2.2,3.7c-1.8,5.6-2.9,11.5-5.1,17-14.5,36.5-41,59.5-78.9,69.6L128,225H97Z"/><path class="a" d="M0,99c0.8-3.1,1.8-6.2,2.3-9.3,2.3-13.8,8.5-26,15.4-37.9a8.5,8.5,0,0,1,1.8-1.5c4.6,7.1,9.2,14,13.3,21.1,0.8,1.3-.3,4.1-1.1,5.9-5,10.5-7.1,21.7-7.6,33.1s1.8,23,5.9,34c0.6,1.7,1,4.1.2,5.5-4.2,6.9-8.8,13.6-13.9,21.5-2.9-5.5-6-10-7.6-15.1-3-9.3-5-18.8-7.5-28.2A8.6,8.6,0,0,0,0,126Q0,112.5,0,99Z"/><path class="a" d="M131.6,66.3c4.3-6.5,8.2-12.7,12.4-18.7,0.7-1,3.3-1.5,4.6-1,21.9,7.9,29.5,32.5,15.8,51.3-2.7,3.6-6.7,6.2-10.2,9.3,4,2.4,8.5,4.4,12.2,7.5,11.2,9.3,13.6,21.8,10.3,35.2-2.9,11.8-10,20.8-21.5,25.7-3.7,1.6-6.4,1.5-8.7-2.5-3.2-5.7-7.1-11.1-11-17,7.6-2.3,12.6-6.5,13.9-14.3,1.7-10.8-4.4-19.1-15.4-20.2a102.6,102.6,0,0,0-16.4-.8c-4.6.3-7.3-1.5-9.1-5.3s-5.8-4.9-3.2-9,5.3-10.4,13-8.9c3.6,0.7,7.6-.1,11.4-0.5,8.2-.8,13.6-5.6,14.5-12.6,1.2-8.7-1.7-13.5-10.2-17Z"/><path class="a" d="M100.5,103.7c-5.3-8.1-10.1-15.2-14.7-22.5a4.4,4.4,0,0,1,.3-3.9q9.7-15,19.8-29.9a5.7,5.7,0,0,1,4-2.3c9.3-.2,18.6-0.1,29.3-0.1Z"/></svg>