<svg xmlns="http://www.w3.org/2000/svg" viewBox="0 0 148.5 169.9"><defs><style>.a{fill:#fff;}</style></defs><title>xusd</title><path d="M0,85.1C0,71.7.1,58.3,0,44.9A3.9,3.9,0,0,1,2.2,41L72.1,0.7a3.6,3.6,0,0,1,4.3,0l70.4,40.8a3.7,3.7,0,0,1,1.6,2.6c0.1,27.3.1,54.7,0.1,82a2.9,2.9,0,0,1-1.8,2.9c-22.9,13.1-45.8,26.3-68.6,39.6-2.9,1.7-4.9,1.8-7.9.1-22.7-13.3-45.5-26.4-68.3-39.5A3.3,3.3,0,0,1,0,125.9C0.1,112.3,0,98.7,0,85.1Zm8.3-41,1.8,1.2,62,35.9a3.3,3.3,0,0,0,3.8-.2l61.4-35.5,2.6-1.6-1.5-.9L76.5,7.3a3.8,3.8,0,0,0-4.5,0L10.6,42.7ZM70.9,162.5l0.2-.7c0-24.4.1-48.8,0-73.2A3.7,3.7,0,0,0,69.3,86L7.9,50.5,5.7,49.4c0,0.8-.1,1.2-0.1,1.6q0,35.9,0,71.7a3.1,3.1,0,0,0,1.9,3.1L60,156.2Z"/><path class="a" d="M8.3,44.1l2.2-1.4L72,7.2a3.8,3.8,0,0,1,4.5,0l62,35.9,1.5,0.9-2.6,1.6L76,81.1a3.3,3.3,0,0,1-3.8.2l-62-35.9ZM98.6,29.5c-3.5-3.2-5.2-3.4-9-1.6a5.8,5.8,0,0,1-3.5.1c-5.8-1.4-11.4-1.5-16.8,1.3s-5.5,5.9-2.7,10.3c1,1.5,2.3,2.9,3.2,4.4s0.8,5.2-2.5,5.9c-5.1,1.1-9.5-1-12-5.9-1-2-2.2-2.5-4.2-2.1l-2.7.5c-2.8.5-3.2,1.2-1.7,3.6a51.9,51.9,0,0,0,4.1,5l-3.4,2.4a22.4,22.4,0,0,1,2.7,1.5,4.6,4.6,0,0,0,6.3,0,4.2,4.2,0,0,1,3-.2c6,1.3,11.9,1.7,17.5-1.2s5.7-6,2.7-10.5c-1.1-1.6-2.4-3-3.4-4.6-2.2-3.3-.9-5.8,3.1-6.1s7.6,1,9.5,4.7,3.4,3.3,6.1,2.8l2.7-.4c1.7-.2,1.9-1.1,1.1-2.4s-2.5-3.3-3.8-5Z"/><path class="a" d="M70.9,162.5L60,156.2,7.5,125.8a3.1,3.1,0,0,1-1.9-3.1Q5.7,86.9,5.6,51c0-.4,0-0.8.1-1.6l2.2,1.2L69.3,86A3.7,3.7,0,0,1,71,88.6c0.1,24.4,0,48.8,0,73.2ZM42.3,134.6c0-1.2,0-1.7,0-2.3-0.7-8.5-1.5-17.1-2.3-25.6-0.1-1.5,0-2.2,1.7-2.5,3.7-.7,5.7-3.2,6.6-6.7,1.9-7.2-2.9-16.4-9.8-19S26.7,79.5,26,86s1.2,9.4,4.3,13.4a4.6,4.6,0,0,1,.9,3.2c-1.1,6.8-2.4,13.6-3.6,20.4a2.9,2.9,0,0,0,.6,2.4C32.7,128.4,37.3,131.3,42.3,134.6Z"/><path d="M98.6,29.5L94.9,32c1.3,1.7,2.6,3.3,3.8,5s0.7,2.2-1.1,2.4l-2.7.4c-2.7.5-4.6,0-6.1-2.8s-5.5-4.9-9.5-4.7-5.3,2.8-3.1,6.1c1.1,1.6,2.4,3,3.4,4.6,3,4.4,2.1,8-2.7,10.5S65.4,56,59.4,54.7a4.2,4.2,0,0,0-3,.2,4.6,4.6,0,0,1-6.3,0,22.4,22.4,0,0,0-2.7-1.5L50.9,51a51.9,51.9,0,0,1-4.1-5c-1.5-2.4-1.1-3.1,1.7-3.6l2.7-.5c1.9-.4,3.2.1,4.2,2.1,2.5,4.9,7,7,12,5.9,3.3-.7,4.3-3,2.5-5.9s-2.2-2.9-3.2-4.4c-2.9-4.4-2-7.9,2.7-10.3s11-2.6,16.8-1.3a5.8,5.8,0,0,0,3.5-.1C93.4,26.1,95,26.3,98.6,29.5Z"/><path d="M42.3,134.6c-5-3.2-9.6-6.1-14.2-9.2a2.9,2.9,0,0,1-.6-2.4c1.2-6.8,2.5-13.6,3.6-20.4a4.6,4.6,0,0,0-.9-3.2C27.1,95.5,25.4,91.1,26,86s6.4-9.9,12.6-7.6,11.7,11.8,9.8,19c-0.9,3.5-3,6-6.6,6.7-1.7.3-1.9,1.1-1.7,2.5,0.8,8.5,1.5,17.1,2.3,25.6C42.3,132.8,42.3,133.4,42.3,134.6Z"/></svg>